<?xml version="1.0" encoding="utf-8"?>
<!-- Generator: Adobe Illustrator 23.0.3, SVG Export Plug-In . SVG Version: 6.00 Build 0)  -->
<svg version="1.1" id="Layer_1" xmlns="http://www.w3.org/2000/svg" xmlns:xlink="http://www.w3.org/1999/xlink" x="0px" y="0px"
	 viewBox="0 0 107.7 181.4" style="enable-background:new 0 0 107.7 181.4;" xml:space="preserve">
<style type="text/css">
	.st0{fill:#D8B453;}
</style>
<title>Artboard 7</title>
<path class="st0" d="M53.3,3.5C25.4,2.2,7.4-4.6,2.7,15.7C-1.2,32.9,10.3,46.5,20,48.1s57.8,5.2,69.3-0.5s23.5-26.9,12.2-39.3
	C89.9-4.7,76,4.6,53.3,3.5z"/>
<path class="st0" d="M52.4,51.6h1.7c0.2,0,0.4,0.2,0.4,0.4l0.1,22.4c0,0.2-0.2,0.4-0.4,0.4c0,0,0,0,0,0h-1.7c-0.2,0-0.4-0.2-0.4-0.4
	c0,0,0,0,0,0L52,52.1C52,51.8,52.2,51.6,52.4,51.6z"/>
<path class="st0" d="M86.5,75.9c0,0-51.3,0.1-61.9-0.4c-10.2-0.5-14.3-0.4-15,2.8c-0.2,1.1-3.6,10.4,47.3,9.9
	C107.8,87.7,103.1,74.4,86.5,75.9z"/>
<path class="st0" d="M1.3,180c0.2,0.1,0.5,0.1,0.8,0.2c0.7,0.1,1.4-0.4,1.5-1.1l14.7-91.4c0.1-0.6-0.2-1.2-0.8-1.4
	c-0.8-0.3-2-0.4-2.3,1.5C14.7,90.6,2,168.4,0.3,178.5C0.2,179.2,0.6,179.8,1.3,180z"/>
<path class="st0" d="M21.8,88l-7.6,60.9c0,0-1.7,1.5-2.5-0.4l8-61.5c0.4-0.1,0.8-0.1,1.2,0C21.5,87,21.8,87.5,21.8,88z"/>
<path class="st0" d="M85.4,86.8C85.1,87,85,87.3,85,87.7l9.3,60.9c0,0,1.3,2.1,2.3-0.4l-9.5-60.9c-0.1-0.4-0.4-0.7-0.8-0.7
	C86,86.5,85.6,86.6,85.4,86.8z"/>
<path class="st0" d="M88.4,86.9l16.4,92.2c0,0.3,0.2,0.5,0.5,0.6c0.7,0.4,1.5,0.1,1.9-0.5c0-0.1,0.1-0.2,0.1-0.2L91.3,86.5
	c0-0.2-0.2-0.4-0.4-0.5c-0.7-0.4-1.5-0.4-2.1,0.1C88.5,86.3,88.4,86.6,88.4,86.9z"/>
</svg>
