<?xml version="1.0" encoding="utf-8"?>
<!-- Generator: Adobe Illustrator 23.0.3, SVG Export Plug-In . SVG Version: 6.00 Build 0)  -->
<svg version="1.1" id="Layer_1" xmlns="http://www.w3.org/2000/svg" xmlns:xlink="http://www.w3.org/1999/xlink" x="0px" y="0px"
	 viewBox="0 0 102 178.6" style="enable-background:new 0 0 102 178.6;" xml:space="preserve">
<style type="text/css">
	.st0{fill:#D8B453;}
</style>
<title>Artboard 3</title>
<path class="st0" d="M74.4,11.1l19.6,12c0.1,0,0.1,0.1,0.1,0.1c0.7,1,8,11.3,6.9,18.7c-1.1,7.7-7.6,53-7.8,54.3c0,0,0,0,0,0.1
	c-0.2,0.6-3.6,12.5-9,16.4c-4.5,3.3-19.3,12.5-24.6,15.8c-0.2,0.1-0.6,0.1-0.7-0.2c-0.1-0.2-0.1-0.4,0-0.5c2-3.3,3.8-6.7,5.3-10.3
	c3.8-9,13.3-80.9,13.3-80.9c0.4-4.4,0.3-8.9-0.3-13.3c-0.6-4.1-1.9-8-3.7-11.6c-0.2-0.2-0.2-0.6,0.1-0.7
	C73.9,10.9,74.2,10.9,74.4,11.1z"/>
<path class="st0" d="M69.4,18.7c0.4,0.9,0.1,1.9-0.7,2.4c-3.3,1.8-11.2,7-15.1,16.2C48.9,48.6,44.1,80.7,43,88.2
	c-0.1,0.9-0.9,1.6-1.8,1.6l-30.4-0.6c-1,0-1.8-0.8-1.8-1.8c0-0.1,0-0.2,0-0.3l9.8-53.6c0-0.1,0-0.1,0.1-0.2
	c0.5-1.5,6.2-18.6,16.2-24.3C43.5,4.1,59.4-1.2,69.4,18.7z"/>
<path class="st0" d="M10.3,91.9l30.5,0.4c1,0,1.9,0.7,2,1.7c0.7,5,3.5,19.4,12.6,22.7c1.1,0.3,1.6,1.5,1.3,2.5
	c0,0.1-0.1,0.2-0.1,0.2c-2.2,4.8-8.3,15.8-19.2,18c-13.7,2.8-35.5-6.8-29.2-44C8.4,92.6,9.3,91.9,10.3,91.9z"/>
<path class="st0" d="M33,142.5c-0.7,0-1.3,0-2-0.1c-6.7-0.5-22.7-4.1-27.6-26.6c-2.4-11,0.7-28.3,3.4-43.6C7.7,68,8.4,63.9,9,60.1
	c1.9-12.4,6.2-30.7,9.3-37.3C27.5,3,38.8-0.6,53,0.2c9.8,0.5,18.4,8.4,21.4,19.6c2.4,8.8,0.4,20.9-2.5,39.1
	c-0.4,2.5-0.8,5.1-1.2,7.8l0,0c-0.8,5.4-1.5,11.2-2.2,16.9c-1.4,12.2-2.9,24.8-6.1,33.8C56.7,133.3,45.8,142.5,33,142.5z M49.6,2.4
	c-12,0-21.3,4.2-29.4,21.4c-3,6.4-7.2,24.5-9.1,36.7c-0.6,3.8-1.3,7.9-2.1,12.2c-2.7,15-5.7,32.1-3.5,42.7
	c3.2,14.8,12.5,23.8,25.5,24.8c12.7,0.9,23.6-7.9,29.1-23.6c3.1-8.8,4.5-21.2,6-33.3c0.7-5.7,1.3-11.5,2.2-17l1.1,0.2l-1.1-0.2
	c0.4-2.7,0.8-5.3,1.2-7.8c2.9-17.9,4.8-29.8,2.5-38.2C69.5,10.1,61.7,2.9,52.9,2.4C51.8,2.4,50.7,2.4,49.6,2.4z"/>
<path class="st0" d="M75.5,120.4l-2.6,1.8c-0.2,0.1-0.2,0.3-0.1,0.5l13.3,35.1c0,0.1,0.1,0.2,0.2,0.2c0.6,0.3,2.8,1.3,2.9-1.2
	l-13.1-36.2c-0.1-0.2-0.3-0.3-0.5-0.3C75.5,120.3,75.5,120.3,75.5,120.4z"/>
<path class="st0" d="M54,133.9l-2.5,2.1c-0.1,0.1-0.1,0.2-0.1,0.2l0.6,41c0,0.1,0,0.1,0,0.2c0.3,0.4,1.9,2.3,3.7-0.1
	c0-0.1,0.1-0.1,0.1-0.2l-1.2-43c0-0.2-0.1-0.3-0.3-0.3C54.1,133.8,54.1,133.8,54,133.9z"/>
<path class="st0" d="M9.4,132.3l2.1,2.6c0,0.1,0,0.2,0,0.2l-7.2,28.3c0,0.1,0,0.1-0.1,0.1c-0.4,0.3-2.7,1.8-3.3-1.1l8.1-30.1
	c0-0.1,0.2-0.2,0.3-0.2C9.3,132.2,9.3,132.3,9.4,132.3z"/>
<path class="st0" d="M50.2,136.9l-2.4,1.7c-0.1,0-0.1,0.1-0.1,0.2l1.8,9.8c0,0,0.6,0.9,1.1,0.9l-0.2-12.4c0-0.1-0.1-0.2-0.2-0.2
	C50.3,136.9,50.3,136.9,50.2,136.9z"/>
</svg>
