<?xml version="1.0" encoding="utf-8"?>
<!-- Generator: Adobe Illustrator 23.0.3, SVG Export Plug-In . SVG Version: 6.00 Build 0)  -->
<svg version="1.1" id="Layer_1" xmlns="http://www.w3.org/2000/svg" xmlns:xlink="http://www.w3.org/1999/xlink" x="0px" y="0px"
	 viewBox="0 0 116.2 170.1" style="enable-background:new 0 0 116.2 170.1;" xml:space="preserve">
<style type="text/css">
	.st0{fill:#D8B453;}
</style>
<title>Artboard 5</title>
<path class="st0" d="M86.8,79.6l-4.7,3.2c-0.9,0.6-2.1,0.8-3.1,0.3c-6.9-2.7-34-12.8-52.4-11.6c-0.7,0-1.3-0.1-1.9-0.4l-1.9-1.1
	c-0.7-0.4-1.5-0.5-2.3-0.4l-16,2.9c-0.5,0.1-1.1,0.1-1.6-0.1c-1.3-0.4-3.1-1.3,0.5-2.5c4.8-1.7,78.3-17,84.8,6.1
	C88.5,77.4,88,78.8,86.8,79.6z"/>
<path class="st0" d="M95.5,73.3l-3.6,3.2c-0.1,0.1-0.3,0.1-0.5,0c-2-1.3-13.8-11.8,11.4-58.9c0.1-0.2,0.3-0.3,0.5-0.2
	c0.2,0.1,0.3,0.3,0.2,0.5c-2.8,9.5-9.7,35.2-7.9,55C95.6,73.1,95.6,73.2,95.5,73.3z"/>
<path class="st0" d="M110.5,1.6C102,15.5,83.5,48.2,85.1,67c0,0.3-0.2,0.6-0.5,0.6c-0.1,0-0.2,0-0.3-0.1L81.4,66
	c-0.2-0.1-0.3-0.3-0.3-0.5c0.1-3.3,1.5-31,28.5-64.6c0.2-0.2,0.5-0.3,0.8-0.1C110.7,1,110.7,1.3,110.5,1.6z"/>
<path class="st0" d="M9.6,167.8C8.8,168,8,168,7.2,167.9c-1.1-0.1-1.9-1.1-1.8-2.2c0,0,0,0,0,0L16,73.3c0.1-0.9,0.8-1.6,1.6-1.7
	l2.6-0.5c0.4-0.1,0.9,0,1.3,0.2l2.5,1.3c0.7,0.4,1.1,1.2,1,2.1l-13.9,91.5C11.1,167,10.4,167.7,9.6,167.8z"/>
<path class="st0" d="M19.5,118.4l-0.3,1.9c0,0.3,0.2,0.5,0.4,0.5c0,0,0,0,0,0l82.8,7.3c0.3,0,0.5-0.2,0.5-0.4c0,0,0,0,0-0.1
	l-0.2-2.2c0-0.2-0.2-0.4-0.4-0.4L20,118C19.8,118,19.6,118.2,19.5,118.4z"/>
<path class="st0" d="M24,88.2l-0.3,2.2c0,0.2,0.1,0.5,0.4,0.5c0,0,0,0,0,0l76.4,7.6c0.2,0,0.5-0.2,0.5-0.4c0,0,0-0.1,0-0.1l-0.2-1.7
	c0-0.2-0.2-0.4-0.4-0.4l-76-8.1C24.2,87.9,24,88,24,88.2z"/>
<path class="st0" d="M20.8,113.6l-0.3,2c0,0.2,0.1,0.4,0.3,0.4c0,0,0,0,0,0l77.5,7.1c0.2,0,0.4-0.1,0.4-0.3c0,0,0,0,0-0.1l-0.2-2.2
	c0-0.2-0.2-0.3-0.3-0.3l-77-6.9C21,113.3,20.8,113.4,20.8,113.6z"/>
<path class="st0" d="M108.4,168.5c2,1.1,4.4,1.1,6.4,0c0.1-0.1,0.2-0.2,0.2-0.3L103,25.5c0-0.2-0.2-0.3-0.3-0.2
	c-0.1,0-0.2,0.1-0.2,0.2l-4.2,20.3c0,0,0,0.1,0,0.1l10,122.4C108.3,168.4,108.3,168.4,108.4,168.5z"/>
<path class="st0" d="M97.4,59c-0.2,8.4-0.4,27.4,1,35.1c0,0.1,0.1,0.2,0.2,0.2l1.8,0.3c0.1,0,0.2-0.1,0.3-0.2c0,0,0,0,0-0.1L97.9,59
	c0-0.1-0.1-0.2-0.2-0.2S97.4,58.9,97.4,59z"/>
<path class="st0" d="M98.5,100.4l1.6,22.6c0,0.2,0.2,0.4,0.4,0.5l1.5,0.1c0.3,0,0.5-0.2,0.5-0.5c0,0,0,0,0-0.1l-1.4-22.6
	c0-0.2-0.2-0.5-0.5-0.5L99,99.8C98.7,99.8,98.5,100.1,98.5,100.4C98.5,100.4,98.5,100.4,98.5,100.4z"/>
<path class="st0" d="M100.1,129.7l0.3,17.7c0,0.2,0.1,0.3,0.2,0.4c1,0.5,2.2,0.6,3.3,0.2c0.2-0.1,0.3-0.2,0.3-0.4l-1.2-17.7
	c0-0.2-0.2-0.4-0.4-0.4l-2.1-0.2C100.3,129.3,100.1,129.5,100.1,129.7C100.1,129.7,100.1,129.7,100.1,129.7z"/>
</svg>
