<?xml version="1.0" encoding="utf-8"?>
<!-- Generator: Adobe Illustrator 23.0.3, SVG Export Plug-In . SVG Version: 6.00 Build 0)  -->
<svg version="1.1" id="Layer_1" xmlns="http://www.w3.org/2000/svg" xmlns:xlink="http://www.w3.org/1999/xlink" x="0px" y="0px"
	 viewBox="0 0 153.1 99.2" style="enable-background:new 0 0 153.1 99.2;" xml:space="preserve">
<style type="text/css">
	.st0{fill:#D8B453;}
</style>
<title>Artboard 8</title>
<ellipse class="st0" cx="76.5" cy="27.9" rx="6.9" ry="4.1"/>
<path class="st0" d="M67.6,28.7L67.6,28.7c0.2,0.7-0.1,1.3-0.7,1.6c-0.1,0-0.1,0-0.2,0c-6.7,1.3-36.3,7-38.2,8.9
	c-1.9,1.9-1.4,13.8-1.3,17.5c0,0.6-0.5,1.2-1.2,1.2c-0.3,0-0.6-0.1-0.8-0.3l0,0c-0.9-1.2-0.9-18.9,0.3-21.1c1.1-2,34.6-7.6,40.8-8.6
	C66.8,27.9,67.4,28.2,67.6,28.7z"/>
<ellipse transform="matrix(0.1874 -0.9823 0.9823 0.1874 -42.8995 76.2423)" class="st0" cx="24.6" cy="64" rx="5.5" ry="4"/>
<path class="st0" d="M19.9,68.4c0.8,1.2,3.3,4.2,7.5,1.5c0.2-0.2,0.5-0.1,0.7,0.1c0,0,0,0.1,0,0.1c1.1,2.6,4.9,13.7-4.2,19.6
	c-10.4,6.7-3.1-3-3.1-3s-2.3,3.6-4.4,4.2c-1,0.3-2.1,0.2-3.1-0.1c-0.3-0.1-0.4-0.4-0.3-0.6c0-0.1,0.1-0.1,0.1-0.2
	c1.4-1.3,5.1-4.9,4.7-4.5c-0.6,0.5-3.3,1.8-5,3c-0.2,0.1-0.5,0.1-0.7-0.2c-0.1-0.1-0.1-0.3,0-0.5c1.5-2.7,4.1-7.7,3.9-9
	c-0.3-1.8-3.2-6.2,3.2-10.4C19.4,68.2,19.7,68.2,19.9,68.4z"/>
<path class="st0" d="M67.6,31.5l-37,8.4c-0.3,0.1-0.6,0.3-0.7,0.6c-0.3,0.8-0.4,1.6-0.3,2.4c0.2,1.5,39.8,21.7,44,23.9
	c0.3,0.1,0.5,0.1,0.8,0l77.4-26.6c0.4-0.1,0.7-0.6,0.7-1l-0.1-3.6c0-0.4-0.2-0.7-0.6-0.9L74.3,0.9c-0.2-0.1-0.5-0.1-0.7,0L1.7,24.1
	c-0.3,0.1-0.6,0.4-0.7,0.7c-0.4,1.3-0.5,2.6-0.4,3.9C0.9,30.9,17.2,38,22,40.1c0.5,0.2,1.1,0,1.3-0.5c0.1-0.1,0.1-0.2,0.1-0.4
	c0-1.3,0.2-2.5,0.6-3.7c0.7-1.6,39.4-8.4,43-9c0.2,0,0.3-0.1,0.5-0.2c0.8-0.7,3.9-3.1,6.4-3.7c3.3-0.9,10.7,0.1,10.9,4.4
	c0.5,9.4-14.5,5.3-16.7,4.6C68,31.5,67.8,31.5,67.6,31.5z"/>
<path class="st0" d="M35.4,48.5l37.9,20.3c0.4,0.2,0.8,0.2,1.2,0.1l43.6-15.5c0.8-0.3,1.7,0.1,1.9,0.9c0,0.1,0.1,0.2,0.1,0.3l4,26.6
	c0.1,0.6-0.1,1.1-0.6,1.5c-6.2,4.5-50.2,33.9-92-1.8c-0.4-0.3-0.6-0.8-0.5-1.3c0.3-3.7,0-7.5-0.9-11.1c0-0.2,0-0.4,0-0.6l3.2-18.4
	c0.1-0.8,0.9-1.4,1.8-1.2C35.1,48.4,35.3,48.4,35.4,48.5z"/>
</svg>
