<?xml version="1.0" encoding="utf-8"?>
<!-- Generator: Adobe Illustrator 23.0.3, SVG Export Plug-In . SVG Version: 6.00 Build 0)  -->
<svg version="1.1" id="Layer_1" xmlns="http://www.w3.org/2000/svg" xmlns:xlink="http://www.w3.org/1999/xlink" x="0px" y="0px"
	 viewBox="0 0 79.4 113.4" style="enable-background:new 0 0 79.4 113.4;" xml:space="preserve">
<style type="text/css">
	.st0{fill:#D8B453;}
</style>
<title>Artboard 9</title>
<path class="st0" d="M69,26.3l0.3,39.9c0,0.5,0.4,0.8,0.8,0.8c0,0,0,0,0,0l7.2-0.2c0.5,0,0.8-0.4,0.8-0.8l0.3-39.4
	c0-0.5-0.3-0.8-0.8-0.8c0,0,0,0,0,0l-7.7-0.2C69.4,25.4,69,25.8,69,26.3C69,26.3,69,26.3,69,26.3z"/>
<path class="st0" d="M58.3,0.4c-0.8,0-1.4,0.6-1.4,1.4c0,10.5-0.2,76.9-0.2,77.1c-0.8,11.4-10.8,22.7-22.5,22.7
	c-11.6,0.1-21.1-9.3-21.1-20.9c0,0,0,0,0,0c0.1-4,0.9-7.9,2.6-11.6c0.3-0.7,0-1.5-0.7-1.8c0,0-0.1,0-0.1-0.1
	c-2.7-0.9-5.1-2.2-7.4-3.9C6.8,63,6,63.1,5.5,63.7c0,0,0,0.1-0.1,0.1c-3,5-4.5,10.6-4.5,16.4c0,18.1,14.9,32.8,33.3,32.8
	s33.3-14.7,33.3-32.8V1.8c0-0.8-0.6-1.4-1.4-1.4l0,0L58.3,0.4z"/>
<path class="st0" d="M16.4,66.5c0,0.3-2.5-0.5-5.3-2.1c-2.8-1.6-3.8-2.5-3.7-2.7c0.1-0.3,1.7-0.2,4.6,1.4
	C14.9,64.6,16.2,65.4,16.4,66.5z"/>
</svg>
