<?xml version="1.0" encoding="utf-8"?>
<!-- Generator: Adobe Illustrator 23.0.3, SVG Export Plug-In . SVG Version: 6.00 Build 0)  -->
<svg version="1.1" id="Layer_1" xmlns="http://www.w3.org/2000/svg" xmlns:xlink="http://www.w3.org/1999/xlink" x="0px" y="0px"
	 viewBox="0 0 141.7 93.5" style="enable-background:new 0 0 141.7 93.5;" xml:space="preserve">
<title>Artboard 2</title>
<g>
	<g>
		<polygon points="72.7,91.7 2.5,91.7 2.5,1.9 72.7,1.9 72.7,18.6 71.2,18.6 71.2,3.4 4,3.4 4,90.2 71.2,90.2 71.2,77.1 72.7,77.1
					"/>
		<path d="M73.2,92.2H2V1.4h71.2v17.7h-2.5V3.9H4.5v85.8h66.2V76.6h2.5V92.2z M3,91.2h69.2V77.6h-0.5v13.1H3.5V2.9h68.2v15.2h0.5
			V2.4H3V91.2z"/>
	</g>
	<g>
		<path d="M29.4,28.5l5.1,8.2l5-8.2h1.7v14.7h-1.8V31.7l-5,8.2l-5-8.1v11.5h-1.8V28.5H29.4z"/>
		<path d="M50.3,28.5H52l5.7,14.7h-1.8l-1.5-4H48l-1.5,4h-1.9L50.3,28.5z M48.6,37.6h5l-2.5-6.5L48.6,37.6z"/>
		<path d="M61.1,28.5h3.8c2.9,0,4.9,1.7,4.9,4.3c0,3.5-3.2,4.1-3.6,4.2l4.1,6.2h-2.1l-4-6h-1.4v6H61V28.5H61.1z M68,32.9
			c0-1.6-1.1-2.7-3-2.7h-2.2v5.3H65C67,35.5,68,34.5,68,32.9z"/>
		<path d="M76.9,30.2h-4.2v-1.7h10.2v1.7h-4.2v13h-1.8V30.2z"/>
		<path d="M86.7,28.5h1.8v14.7h-1.8V28.5z"/>
		<path d="M95.5,28.5l7.9,11.8V28.5h1.8v14.7h-1.8l-7.9-11.8v11.8h-1.8V28.5H95.5z"/>
		<path d="M30,59.1l5.2-6.6h3.1l-5.8,7.2l6.5,7.5h-3.3L30,60.6v6.6h-2.5V52.5H30V59.1z"/>
		<path d="M44.6,58.5h5.9v2.4h-5.9v3.9h6.5v2.4h-9V52.5H51v2.4h-6.4V58.5z"/>
		<path d="M65.6,63.3l1.7,1.7c0,0-1.9,2.5-5.6,2.5c-4.2,0-7.5-3.3-7.5-7.6s3.2-7.6,7.5-7.6c3.5,0,5.4,2.3,5.4,2.3l-1.7,1.7
			c0,0-1.3-1.6-3.7-1.6c-2.9,0-4.9,2.4-4.9,5.2s2,5.2,4.9,5.2C64.3,65.1,65.6,63.3,65.6,63.3z"/>
		<path d="M79.5,52.5H82v14.7h-2.5v-6.3h-6.3v6.3h-2.5V52.5h2.5v6h6.3V52.5z"/>
		<path d="M90.9,52.5h2.6l5.7,14.7h-2.5l-1.3-3.5h-6.2l-1.3,3.5h-2.5L90.9,52.5z M90,61.4h4.4l-2.2-5.7L90,61.4z"/>
		<path d="M107.2,67.2h-2.5v-5.8l-5-8.9h2.8l3.6,6.6l3.6-6.6h2.6l-5,8.9L107.2,67.2L107.2,67.2z"/>
		<path d="M118.5,52.5h2.6l5.7,14.7h-2.5l-1.3-3.5h-6.2l-1.3,3.5H113L118.5,52.5z M117.5,61.4h4.4l-2.2-5.7L117.5,61.4z"/>
		<path d="M134.5,61.1c-2.2-0.8-4.6-1.9-4.6-4.7c0-2.1,1.8-4.2,4.8-4.2c3.1,0,4.8,2.3,4.8,2.3l-1.7,1.7c0,0-1.2-1.7-3-1.7
			c-1.3,0-2.2,0.8-2.2,1.8c0,1.3,1.2,1.7,3.2,2.4c2.2,0.8,4.1,1.8,4.1,4.5c0,2.7-2.4,4.1-5.1,4.1c-3.7,0-5.4-3-5.4-3l1.9-1.6
			c0,0,1.3,2.2,3.5,2.2c1.3,0,2.6-0.5,2.6-1.7C137.2,62.1,136.3,61.7,134.5,61.1z"/>
	</g>
</g>
</svg>
