<?xml version="1.0" encoding="utf-8"?>
<!-- Generator: Adobe Illustrator 23.0.3, SVG Export Plug-In . SVG Version: 6.00 Build 0)  -->
<svg version="1.1" id="Layer_1" xmlns="http://www.w3.org/2000/svg" xmlns:xlink="http://www.w3.org/1999/xlink" x="0px" y="0px"
	 viewBox="0 0 161.6 144.6" style="enable-background:new 0 0 161.6 144.6;" xml:space="preserve">
<style type="text/css">
	.st0{fill:#D8B453;}
</style>
<title>Artboard 11</title>
<path class="st0" d="M20,62.7c4.6,0.6,9.3,0.6,13.9,0.1c0.3,0,0.5-0.2,0.5-0.5c0-0.3-0.2-0.5-0.5-0.5c-1.9-0.6-4.4-1.5-5.3-2.8
	c-0.2-0.2-0.5-0.4-0.8-0.3c-0.6,0-1.1,0-1.7,0c-0.1,0-0.3,0-0.4,0.1c-1.6,1.4-3.6,2.4-5.7,2.9c-0.3,0.1-0.4,0.3-0.4,0.6
	C19.7,62.5,19.8,62.7,20,62.7z"/>
<path class="st0" d="M56.7,65.6c4.6,0.4,9.3,0.2,13.9-0.6c0.3-0.1,0.5-0.3,0.4-0.6c0-0.2-0.2-0.4-0.4-0.4c-1.9-0.5-4.5-1.3-5.5-2.5
	c-0.2-0.2-0.5-0.3-0.8-0.3c-0.6,0.1-1.1,0.1-1.7,0.1c-0.1,0-0.3,0-0.4,0.1c-1.6,1.5-3.5,2.6-5.6,3.1c-0.3,0.1-0.4,0.4-0.3,0.6
	C56.2,65.5,56.4,65.6,56.7,65.6z"/>
<path class="st0" d="M100.9,94c4.4,0.8,8.9,1.1,13.4,0.8c0.3,0,0.5-0.2,0.6-0.4c0-0.3-0.2-0.5-0.4-0.6c-1.8-0.7-4.2-1.7-5-3
	c-0.2-0.2-0.5-0.4-0.8-0.4c-0.6,0-1.1,0-1.6-0.1c-0.1,0-0.3,0-0.4,0.1c-1.7,1.3-3.6,2.2-5.7,2.5c-0.3,0-0.5,0.2-0.5,0.5
	C100.4,93.8,100.6,94,100.9,94z"/>
<path class="st0" d="M18.1,62.9c2.9,1.3,9.2,3.1,17.8,0c0.7-0.3,1.5-0.4,2.3-0.3c2,0.2,5.7,1.2,6.2,5c0.7,5.3,3.8,41.3,3.4,42.7
	c-0.5,1.4-2.2,2.8-4.6,3.1c-2.4,0.3-33.8-0.6-38.3-2.4c-4.1-1.7-4-1.8-3.4-5.1c0.6-3.3,7.1-40.2,7.7-41.1c0.4-0.7,0.6-1.9,3.9-2.6
	C14.8,62,16.6,62.2,18.1,62.9z"/>
<path class="st0" d="M87.2,37.5c4.6,0.6,9.3,0.6,13.9,0.1c0.3,0,0.5-0.2,0.5-0.5c0-0.3-0.2-0.5-0.5-0.5c-1.9-0.6-4.4-1.5-5.3-2.8
	c-0.2-0.2-0.5-0.4-0.8-0.3c-0.6,0-1.1,0-1.7,0c-0.1,0-0.3,0-0.4,0.1c-1.7,1.4-3.6,2.4-5.8,2.9c-0.3,0-0.5,0.2-0.5,0.5
	S86.9,37.6,87.2,37.5z"/>
<path class="st0" d="M85.3,37.7c2.9,1.3,9.1,3.1,17.8,0c0.7-0.3,1.5-0.4,2.3-0.3c2,0.2,5.7,1.2,6.2,5c0.7,5.3,3.8,41.3,3.4,42.8
	c-0.5,1.4-2.2,2.8-4.6,3.1c-2.4,0.3-33.8-0.6-38.3-2.4c-4.1-1.7-4-1.8-3.4-5.1s7.1-40.3,7.7-41.1c0.4-0.7,0.6-1.9,3.9-2.6
	C82,36.7,83.7,37,85.3,37.7z"/>
<path class="st0" d="M132.5,66.9c4.6,0.6,9.3,0.6,13.9,0.1c0.3,0,0.5-0.2,0.5-0.5s-0.2-0.5-0.5-0.5c-1.9-0.6-4.4-1.5-5.3-2.8
	c-0.2-0.2-0.5-0.4-0.8-0.3c-0.6,0-1.1,0-1.7,0c-0.1,0-0.3,0-0.4,0.1c-1.6,1.5-3.6,2.5-5.8,2.9c-0.3,0.1-0.4,0.4-0.3,0.7
	C132.3,66.8,132.4,66.9,132.5,66.9z"/>
<path class="st0" d="M130.7,67.1c2.9,1.3,9.2,3.1,17.8,0c0.7-0.3,1.5-0.4,2.3-0.3c2,0.3,5.7,1.2,6.2,5c0.7,5.3,3.8,41.3,3.4,42.8
	c-0.5,1.4-2.2,2.8-4.6,3.1c-2.4,0.3-33.8-0.6-38.3-2.4c-4.1-1.7-4-1.8-3.4-5.1s7.1-40.3,7.7-41.1c0.4-0.7,0.6-1.9,3.9-2.6
	C127.3,66.1,129.1,66.4,130.7,67.1z"/>
<path class="st0" d="M29.8,1.1l0.4,0c0.3,0,0.5,0.3,0.5,0.6L28,57.4c0,0.3-0.3,0.5-0.6,0.5l-0.4,0c-0.3,0-0.5-0.3-0.5-0.6l2.7-55.7
	C29.2,1.3,29.5,1.1,29.8,1.1z"/>
<path class="st0" d="M61.8,0.9l0.4,0c0.3,0,0.5,0.2,0.6,0.5l1.7,58.5c0,0.3-0.2,0.5-0.5,0.6l-0.4,0c-0.3,0-0.5-0.2-0.6-0.5L61.2,1.5
	C61.2,1.2,61.5,0.9,61.8,0.9z"/>
<path class="st0" d="M93.8,1.1h0.4c0.3,0,0.5,0.2,0.5,0.5v30.3c0,0.3-0.2,0.5-0.5,0.5h-0.4c-0.3,0-0.5-0.2-0.5-0.5V1.6
	C93.2,1.3,93.4,1.1,93.8,1.1z"/>
<path class="st0" d="M139.5,1h0.5c0.4,0,0.7,0.3,0.7,0.7v59.6c0,0.4-0.3,0.7-0.7,0.7h-0.5c-0.4,0-0.7-0.3-0.7-0.7V1.7
	C138.8,1.3,139.1,1,139.5,1z"/>
<path class="st0" d="M68.1,66.3c-4.4,0.8-9,0.7-13.4-0.3c-1.3-0.3-2.6-0.3-3.8,0.2c-1.3,0.5-2.7,1.3-2.9,2.7
	c-0.4,2.5-1.5,8.5-1.7,9.6c0,0.1,0,0.2,0,0.4l2.8,30.5c0,0.2,0,0.5-0.1,0.7c-0.6,0.9-1.1,1.8-1.5,2.7c-0.3,0.9,20.2,4.6,31.9,0.7
	s9.3-3.5,8.3-10.5c-0.7-4.4-1.7-8.8-3-13.1c-0.2-0.6-0.7-1-1.3-0.9c-2.7,0-10.5-0.2-16.1-3.8c-1.2-0.8,1.2-12.3,2.3-17.1
	c0.2-0.7-0.3-1.4-1-1.6C68.5,66.3,68.3,66.3,68.1,66.3z"/>
<path class="st0" d="M113.3,95.4c-4.3,0.7-8.8,0.5-13-0.6c-1.3-0.4-2.7-0.3-3.9,0.1c-1.3,0.5-2.6,1.3-2.9,2.7
	c-0.4,2.5-1.3,6-1.6,7.1c0,0.1-7,29.8-6.2,35c0.2,1.3,26.1,5.9,38.3,3c12.2-2.9,9.3-3.3,8.5-10.4c-0.6-4.4-1.5-8.7-2.7-13
	c-0.2-0.7-0.8-1.1-1.4-1.1c-2.8,0-10.4-0.5-15.8-4.1c-1.2-0.8,1.4-11.9,2.6-16.7c0.2-0.8-0.3-1.6-1.1-1.8
	C113.7,95.4,113.5,95.4,113.3,95.4z"/>
<path class="st0" d="M107.5,88.8l1.1,0.1c0.1,0,0.2,0.1,0.2,0.2l0,0.7c0,0.1-0.1,0.2-0.2,0.2l-1.1-0.1c-0.1,0-0.2-0.1-0.2-0.2l0-0.7
	C107.3,88.9,107.4,88.8,107.5,88.8z"/>
<path class="st0" d="M114.1,1l0.4,0c0.3,0,0.5,0.3,0.5,0.5l-6,85.3c0,0.3-0.3,0.5-0.5,0.5l-0.4,0c-0.3,0-0.5-0.3-0.5-0.5l6-85.3
	C113.6,1.2,113.9,1,114.1,1z"/>
</svg>
