<?xml version="1.0" encoding="utf-8"?>
<!-- Generator: Adobe Illustrator 23.0.3, SVG Export Plug-In . SVG Version: 6.00 Build 0)  -->
<svg version="1.1" id="Layer_1" xmlns="http://www.w3.org/2000/svg" xmlns:xlink="http://www.w3.org/1999/xlink" x="0px" y="0px"
	 viewBox="0 0 150.2 175.7" style="enable-background:new 0 0 150.2 175.7;" xml:space="preserve">
<style type="text/css">
	.st0{fill:#D8B453;}
</style>
<title>Artboard 6</title>
<path class="st0" d="M133,88.1c0.4-0.8,13.1-60.3,16.6-76.2c0.5-2.5-0.6-5-2.8-6.2c-4-2.2-10.4-4.6-14.9-1
	c-7.1,5.8-18,56.2-16.9,67.7C116.8,93,132.5,89,133,88.1z"/>
<path class="st0" d="M125.2,13.3c0.5-1.4-0.2-2.9-1.6-3.4c-0.3-0.1-0.5-0.1-0.8-0.2c-10.7-0.1-41.9-1-56.2-5.8
	C49.2-1.7,45.3,1,41.2,6.8s-1.7,14.3-8.8,37S31.3,72.3,39.2,75c8.3,2.8,33.7,5.5,27.9,20.1c-4.4,11.2-12.7,4.1-21,2.5
	c-15.2-3.1-53.5,2.2-42.5,10.5c2.7,1.8,5.8,3.1,9,3.7l-0.4-0.1l0,0c0.6,0.9,1.5,1.4,2.5,1.6l3.1,0.6c0.7,0.1,1.4-0.2,1.7-0.7l0,0
	c0.1-0.1,0.2-0.2,0.4-0.2c14.5,1.6,32.7-0.2,38.2-1.5c8-1.9,30.9,0.8,45.8,3.9s20.1-5.5,21.5-10.5c1-3.4,2.3-6.7,3.7-9.9
	c0.6-1.3-0.1-2.9-1.4-3.4c-0.2-0.1-0.5-0.2-0.8-0.2C100.1,88.4,119.8,28.5,125.2,13.3z"/>
<path class="st0" d="M48.7,116l3.1,3c0.2,0.2,0.4,0.3,0.7,0.3h6.1c0.3,0,0.5-0.1,0.7-0.3l3.1-3.5c0.2-0.2,0.5-0.4,0.8-0.3l40.6,2.2
	c0.1,0,0.2,0,0.3,0.1l6.4,2.7c0.1,0.1,0.3,0.1,0.5,0.1c1.1-0.1,6.1-0.6,6.6-1.2c0.3-0.5,0.4-1.2,0.3-1.7c-0.1-0.5-0.5-0.9-1.1-0.9
	c0,0-0.1,0-0.1,0c-2.9,0.9-6,1.2-9,0.8c-4.8-0.8-24.9-4.2-29.6-4.4c-4.5-0.1-17.6-1.3-28.8,1.7c-0.5,0.1-0.8,0.7-0.7,1.2
	C48.5,115.7,48.6,115.9,48.7,116z"/>
<path class="st0" d="M13.2,114.2c1.2,0.4,2.5,0.7,3.8,0.8c0.6,0,1.1,0.6,1,1.2c0,0.1,0,0.1,0,0.2L7.1,160.8c0,0.2-0.1,0.3-0.2,0.5
	c-1,1.1-5.7,6-6.3-1.5c0-0.1,0-0.3,0-0.4L11.8,115c0.1-0.6,0.7-1,1.3-0.8C13.1,114.2,13.2,114.2,13.2,114.2z"/>
<path class="st0" d="M52.9,120.6c1.7,0.1,3.4,0.1,5.1,0c0.5,0,0.9,0.3,0.9,0.8c0,0,0,0.1,0,0.1l-0.4,49.4c0,0.1,0,0.2-0.1,0.3
	c-0.5,1.1-3.4,7.7-6.6,0c0-0.1-0.1-0.2-0.1-0.3l0.2-49.4C52,120.9,52.4,120.6,52.9,120.6C52.9,120.6,52.9,120.6,52.9,120.6z"/>
<path class="st0" d="M70.2,116.7c1.3,0,3.8,0.1,5.6,0c0.4,0,0.7,0.3,0.8,0.7l2.7,33.7c0,0.1,0,0.2,0,0.2c-0.3,1-2.2,7.7-6.2,0.7
	c-0.1-0.1-0.1-0.2-0.1-0.3l-3.6-34.2C69.4,117.1,69.7,116.8,70.2,116.7C70.2,116.7,70.2,116.7,70.2,116.7z"/>
<path class="st0" d="M111.4,121.2c1.9,0,3.9-0.4,5.6-1.1c0.2-0.1,0.5,0,0.6,0.2c0,0,0,0,0,0.1l12,38.9c0,0,0,0.1,0,0.1
	c0,0.8-0.5,9-5.8,2.2c0,0-0.1-0.1-0.1-0.1L111,121.8c-0.1-0.2,0.1-0.5,0.3-0.6C111.3,121.2,111.4,121.2,111.4,121.2z"/>
</svg>
