<?xml version="1.0" encoding="utf-8"?>
<!-- Generator: Adobe Illustrator 23.0.3, SVG Export Plug-In . SVG Version: 6.00 Build 0)  -->
<svg version="1.1" id="Layer_1" xmlns="http://www.w3.org/2000/svg" xmlns:xlink="http://www.w3.org/1999/xlink" x="0px" y="0px"
	 viewBox="0 0 119.1 164.4" style="enable-background:new 0 0 119.1 164.4;" xml:space="preserve">
<style type="text/css">
	.st0{fill:#D8B453;}
</style>
<title>Artboard 12</title>
<path class="st0" d="M38.6,101.9l1.4,21.6c0,0-8.3,1.7-8.7-4.4C30.9,113,29.3,99.8,38.6,101.9z"/>
<path class="st0" d="M39.6,93.1c0,0,2.7,49.9,4.2,53.9c1.5,4,6.4,16.9,26.6,16.5s26.4-11.5,27.7-17s4.4-50.7,4.4-55
	C102.4,91.4,80,99,39.6,93.1z"/>
<path class="st0" d="M71.6,88.4H69c0.1,0.3,0.1,0.6,0.2,0.9c0.3,1.1-0.1,1.2-1.5,1.6c-0.8,0.2-1.6-0.4-1.8-1.2c0,0,0,0,0,0
	c-0.1-0.4-0.2-0.8-0.2-1.1c-14.2,0.4-25.4,2.1-25.4,2.8s14.4,2.1,31,2.1s30.5-2.7,30.5-3.6C101.7,89.1,88.3,88.4,71.6,88.4z"/>
<path class="st0" d="M118.3,29.9c-1-0.1-1.9-0.1-2.9,0c-0.4,0.1-0.8,0.2-1.3,0.3c-0.4,0.1-0.8,0.2-1.2,0.3c-0.9,0.1-4.9,3-6.2,4.6
	c-1,1.2-1.8,2.4-2.6,3.7l-0.4,0.7l0.3-0.9c0.2-0.5,0.4-1,0.7-1.5c0.4-0.7,2.3-3.4,4.5-6.3c0.8-0.9,1.4-1.8,1.8-2.8
	c0.4-1,0.7-2.1,0.8-3.2c0.1-0.7,0.1-0.9-0.1-1.1c-0.2-0.2-1,0.5-1.8,1.6c-0.3,0.5-0.8,0.9-1.2,1.3c-0.2,0.2-0.4,0.3-0.6,0.5
	c-0.1,0.2-0.2-0.1-0.3-1.5c0-1.1-0.2-2.2-0.6-3.2c-0.2-0.1-0.5,0.2-1,0.9c-0.2,0.3-0.6,0.9-0.9,1.3c-0.9,1.3-1.6,2.7-2.1,4.1
	l-0.7,1.9l-0.1-0.5c-0.1-0.7-0.3-1.5-0.5-2.2c-0.2-0.4-0.4-0.7-0.5-1.1c-0.2-0.7-0.7-1.4-1.3-1.9c-0.2-0.2-0.4-0.4-0.6-0.6
	c-0.4-0.4-0.8-0.8-1.3-1c-0.4-0.2-0.7-0.4-1.1-0.5c-0.2,0-0.2,0.1-0.5,0.9c-0.5,1.3-0.7,2.6-0.8,3.9c-0.2,1.1-0.1,2.2,0.3,3.3
	l0.2,0.6h-0.3c-0.2,0-0.4,0-0.6,0.1c-0.2,0.1-0.3,0-0.7-0.2C94,31,93.4,31.2,92,32.3c-0.5,0.4-0.8,0.5-0.7,0.4c0,0,0-0.1,0-0.1
	c-0.7,0.3-1.3,0.7-1.9,1.1c-0.3,0.3-0.3,0.1,0-0.4c0.5-0.8,0.6-1.7,0.5-2.6c-0.2-0.3-0.4-0.5-0.6-0.7l-0.5-0.4l0.9,0.3
	c0.3,0.1,0.6,0.2,0.9,0.3c-0.1-0.2-0.3-0.3-0.5-0.4l-0.5-0.3H90h0.5l0.3,0.4c0.3,0.4,0.7,0.6,1,0.4c0.3-0.2,0.2-0.1,1,0.4
	c0.6,0.2,1.2,0.3,1.8,0.1c0-0.1,0-0.2-0.1-0.2c-0.2-0.1-0.2-0.2,0.1-0.3c0.7-0.2,0.5-1.2-0.3-1.5c-0.3-0.2-0.8-0.1-1,0.2
	c-0.3,0.3-0.4,0.4-0.5,0.2c-0.1-0.1,0-0.1,0.2-0.3l0.3-0.2l-0.1-0.2c-0.1-0.2-0.2-0.3-0.6-0.5c-0.6-0.3-0.6-0.4-0.1-0.3
	c0.5,0.1,0.9,0,1.3-0.1c0.2-0.1,0.3-0.1,0.5-0.1c0,0.1,0,0.3,0,0.4c0,0.3,0,0.3,0.2,0.2c0.2-0.1,0.3-0.4,0.2-0.6
	c-0.1-0.2-0.1-0.3,0-0.5c0-0.1,0-0.3,0-0.4c-0.3-0.5-0.7-0.9-1.2-1.1c-0.4-0.2-0.7-0.1-1.4,0.3c-0.4,0.2-0.8,0.4-1.2,0.6
	c-0.7,0.3-1.1,0.3-1,0.1c-0.3,0-0.7,0.2-1,0.3c-0.6,0.2-1,0.4-1,0.3c0.2-0.2,0.3-0.4,0.6-0.6c0.2-0.2,0.4-0.4,0.5-0.6
	c-0.1,0-0.2,0-0.3,0h-0.3c0.1-0.1,0.1-0.2,0.2-0.3c0.2-0.2,0.2-0.2,0-0.3c-0.7,0-1.4,0.1-2,0.4L86,25.8l0.2-0.3
	c0.9-1.6,1.6-3.2,2.2-4.9c0.2-0.5,0.3-1,0.3-1s0.1,0.1,0.2,0.2c0.2,0.2,0.4,0.3,0.6,0.5c0.6,0.4,0.6,0.5,0.1,0.7
	c-0.5,0.2-0.5,0.3-0.4,0.7c0.1,0.3,0.2,0.5,0.4,0.6c0.2,0.2,0.4,0.3,0.5,0.5c0.2,0.4,0.5,0.4,0.9,0.2l0.4-0.2l0.1,0.3
	c0.1,0.2,0.2,0.3,0.3,0.4c0.2,0,0.2,0,0.6-0.5c0.4-0.4,0.5-1.1,0.2-1.6c-0.2-0.4-0.2-0.6,0-0.4c0.2,0.2,0.1,0.1,0.2-0.1
	c0-0.1,0-0.2,0-0.4c0-0.1,0.1-0.1,0.2-0.1c0.8,0.2,1.7,0.2,2.5-0.1c0.4-0.2,0.4-0.3-0.1-0.2c-0.5,0.1-0.5,0-0.1-0.1
	c0.3-0.1,0.5-0.2,0.7-0.3c0.3-0.2,0.6-0.3,0.9-0.3c0.4-0.1,0.7-0.3,1-0.5c0.8-0.7,1.1-1.7,0.5-1.9c-0.1-0.1-0.2-0.2-0.3-0.3
	c-0.3-0.3-0.6-0.6-1.1-0.7c-0.6-0.1-1.2,0.2-1.5,0.7c-0.3,0.4-0.9,0.8-1,0.7c0-0.1,0-0.3,0.1-0.4c0.2-0.5,0-0.4-0.3,0.1
	c-0.3,0.5-1.1,1.1-1.2,1.1c-0.1,0,0-0.2,0.1-0.5c0.2-0.6,0.2-0.9,0-1.1c-0.2-0.2-0.6-0.1-1,0.2c-0.2,0.2-0.4,0.3-0.6,0.4
	c-0.2,0.1-0.3,0.1-0.2,0c0-0.1,0-0.2-0.1-0.2c0,0,0,0,0,0c-0.1,0-0.1-0.1,0-0.2c0.7-0.7,0.9-1,0.9-1.5c0.1-0.4,0.2-0.8,0.3-1.1
	c0.1-0.2,0.2-0.4,0.2-0.6c-0.2,0.1-0.4,0.2-0.5,0.3c-0.9,0.7-1.2,0.6-0.6-0.1c0.2-0.2,0.3-0.4,0.4-0.7c0.1-0.2,0-0.2-0.5,0.2
	c-0.2,0.2-0.4,0.4-0.6,0.5c-0.2,0.1-0.3,0.2-0.4,0.4c-0.1,0.2-0.3,0.3-0.5,0.4c0.1-0.5,0.3-1,0.5-1.5l0.6-1.6l0.2,0.1
	c0.2,0.2,0.4,0,0.3-0.2c-0.1-0.1-0.1-0.2-0.1-0.3c0-0.1,0.5,0.1,0.6,0.3c0.2,0.2,0.5,0.5,0.7,0.6c0.6,0.4,1.3,0.8,2,1
	c0.5,0.3,1,0.4,1.6,0.5c0.1,0,0.1-0.1-0.2-0.3L96,13.4h0.3c0.4-0.1,0.4-0.1,0-0.2S96,13,96.1,12.9c0.4-0.4,0.5-1,0.2-1.5
	c-0.1-0.2-0.1-0.2,0.1-0.4s0.3-0.4,0.1-0.3c-0.2,0.1-0.4,0-0.3-0.2l0.1-0.2L96,10.3c-0.9,0.2-1.8,0.2-2.8,0.1
	c0.1-0.2,0.3-0.4,0.4-0.5c0.3-0.3,0.5-0.6,0.7-1c0.2-0.4,0.2-0.4,0-0.3c-0.2,0.1-0.2,0.1-0.1-0.1c0.1-0.2,0-0.2-0.8,0.2
	c-0.5,0.2-1,0.4-1,0.5c-0.3,0.2,0.1-0.3,0.9-1.3c0.4-0.4,0.7-0.8,1-1.3c0.1-0.1,0.1-0.2,0.1-0.2l0.4,0.3c0.4,0.3,0.9,0.5,1.4,0.6
	c0.4,0,0.8-0.1,1.2-0.3C98,6.6,98.2,6.4,98,6.3c-0.2-0.1-0.1-0.1,0.1-0.3c0.3-0.2,0.3-0.4,0-0.2c-0.1,0-0.1,0,0.1-0.1
	c0.3-0.3,0.4-0.4,0.1-0.4c-0.3,0-0.4,0-0.3-0.2s0.1-0.1-0.2-0.2c-1.1-0.1-2.2,0.1-3.1,0.8c-0.3,0.2-0.5,0.3-0.6,0.2
	s-0.2-0.1,0.3-0.2c0.5-0.1,0.9-0.4,1-0.9c0.1-0.3,0.3-0.6,0.5-0.9c0.4-0.6,0.5-1.3,0.5-2c0-0.6-0.2-0.7-0.6-0.4
	c-0.4,0.2-0.7,0.6-0.9,0.9c-0.1,0.2-0.1,0.2-0.1,0c-0.1-0.9-0.8-1.6-1.7-1.6c-0.3,0-0.3,0.1-0.4,0.3c-0.2,0.6,0,1.2,0.5,1.6
	c0.2,0.1,0.3,0.4,0.2,0.6c-0.1,0.1-0.1,0.1-0.2,0s-1-0.7-1-0.6c0,0.1,0,0.3,0,0.4c0.1,0.4,0,0.4-0.1,0.3c-0.1-0.1-0.1,0-0.3,0.3
	c-0.1,0.2-0.2,0.4-0.1,0.6c0.1,0.4,0.4,0.8,0.8,1c0.3,0.2,0.4,0.2,0.3,0.3c-0.1,0.1-0.3,0.5-0.5,1c-0.4,1-0.7,2.1-0.8,3.3
	c-0.1,0.5-0.1,0.5-0.2,0.4s-0.1-0.2,0-0.7c0.2-0.6,0.2-1.2,0.2-1.8c0-0.7,0-1.3,0-1.4c0-0.2-0.1-0.2-0.3,0c-0.1,0.2-0.1,0,0-0.3
	c0.1-0.3,0-0.5,0-0.5s0-0.2,0.1-0.5c0.6-1.2,0.2-2.6-1-3.2c-0.1-0.1-0.2-0.1-0.3-0.1c-0.3-0.1-0.5-0.2-0.5-0.1S89.1,1.7,89,1.7
	c-0.4,0-0.4,0.1,0.1,0.2s0.7,0.3,0.5,0.7C89.4,3,89.3,3.5,89.4,4c0.1,0.4,0.1,0.5-0.1,0.4c-0.2-0.1-0.2,0-0.2,0.2
	c0,0.2-0.1,0.2-0.7-0.3s-0.7-0.6-1-0.5c-0.2,0.1-0.4,0-0.5-0.1c-0.4-0.2-0.9-0.4-1.4-0.3c-0.6,0.1-1.1,0.3-1.7,0.6
	c-0.1,0.1,0.2,0.4,0.5,0.4h0.3l-0.2,0.1c-0.3,0.2-0.4,0.4-0.3,0.8c0.2,0.7,0.8,1.1,1.5,1.1c0.3-0.1,0.5-0.2,0.6-0.4l0.3-0.4L86.7,6
	c0.1,0.2,0.3,0.4,0.5,0.5c0.4,0.2,0.6,0.5,0.2,0.4c-0.3-0.1-0.2,0,0,0.2c0.2,0.2,0.2,0.2,0,0.1c-0.4-0.3-0.2,0,0.7,1.1
	c0.4,0.5,0.9,1,1.4,1.4c0.5,0.3,0.9,0.5,0.8,0.7c-0.1,0.1-0.3,0.1-0.4,0.2c-0.3,0.1-0.4,0.1-0.4,0s-0.1-0.1-0.1-0.2
	c0,0-0.4,1-0.4,1.2c0.1,0.3,0.4,0.6,0.7,0.7l0.3,0.1l-0.6,1.4c-0.3,0.9-0.7,2-0.9,2.7c-0.3,1.2-0.3,1.3-0.5,1.2
	c-0.1-0.1-0.2,0-0.3,0.1l-0.1,0.2v-0.3c0-0.2,0.1-0.5,0.2-0.7c0.3-0.9,0.3-1.9,0-2.8l-0.1-0.4l0.3-0.3c0.3-0.3,0.5-0.7,0.5-1.1
	c0-0.2-0.1-0.2-0.4-0.2c-0.2,0-0.3,0-0.4-0.1c0-0.2,0-0.3,0-0.5c0.1-0.7-0.1-1.5-0.6-2c-0.2-0.2-0.4-0.1-0.6,0.4
	c-0.2,0.4-0.3,0.9-0.2,1.3c0,0.1,0,0.1-0.2,0.1c-0.2-0.1-0.5,0-0.9,0.3c-0.4,0.3-0.5,0.6-0.3,0.9c0.1,0.1,0.2,0.3,0.2,0.5
	c0,0.3,0.1,0.4,0.4,0.3c0.2,0,0.2,0,0.2,0.3c0.1,0.9,0.3,1.7,0.5,2.5c0.2,0.4,0.4,0.7,0.7,1.1c0.4,0.4,0.5,0.7,0.3,0.6l-0.6-0.4
	c-0.2-0.1-0.4-0.3-0.4-0.3c0.1-0.2-0.2-0.8-0.8-1.5c-0.3-0.3-0.5-0.6-0.7-1c0-0.1-0.1-0.2-0.1-0.2c-0.1,0-0.1-0.1-0.1-0.3
	c0-0.3-0.1-0.3-0.2,0c-0.1,0.3,0,0.3-0.3,0C83.7,14,83.4,13.9,83,14c-0.5,0.1-1,0.5-1.2,1l-0.2,0.4l0.3,0.2c0.2,0.1,0.4,0.3,0.6,0.4
	c0.3,0.2,0.3,0.2,0.1,0.2s-0.3,0.1,0.2,0.3c0.4,0.1,0.7,0.3,1.1,0.6c0.3,0.2,0.7,0.5,0.8,0.5c0.2,0.1,0.3,0.3,0.4,0.5
	c0.1,0.3,0.2,0.4,0.6,0.5c0.2,0.1,0.5,0.2,0.7,0.2c0.2,0,0.2,0.1,0.2,0.1c0,0.1-0.1,0.1-0.2,0s-0.8,0.1-0.9,0.5
	c-0.1,0.2-0.2,0.3-0.6,0.5c-0.2,0.1-0.5,0.1-0.8,0.1c-0.3-0.1-0.6,0-0.7,0.1c0.1,0.4,0.3,0.8,0.5,1.1c0.1,0.1,0.1,0.2,0.1,0.5
	c-0.1,0.2-0.1,0.4,0,0.7c0.1,0.3,0.1,0.4-0.2,1.2l-0.3,0.9v-0.9c-0.1-1-0.1-1.2-0.2-0.7c0,0.2-0.1,0.4-0.2,0.3c0,0,0-0.2,0-0.4
	c0.1-0.4,0-0.6-0.2-0.2L82.7,23l0.1-0.3c0.2-0.7,0.2-1.3,0.2-2c0-0.8-0.5-1.5-1.2-1.8c-0.2-0.1-0.4-0.1-0.4,0
	c-0.1,0.2-0.2,0.3-0.5,0.1c-0.3-0.2-0.3-0.1-0.4-0.1c-0.1,0,0,0.1,0,0.1c0,0,0,0.1-0.2,0.2l-0.3,0.2h0.4c0.2,0,0.4,0,0.6,0.1
	c0.2,0.1,0.2,0.1,0.1,0.7c-0.1,0.5,0,1,0.2,1.5c0.1,0.2,0.2,0.4,0.2,0.5c0,0-0.1-0.1-0.2-0.2c-0.1-0.1-0.2-0.3-1-0.6
	c-1.3-0.5-2.3-0.6-2.9-0.1c-0.2,0.1-0.3,0.4-0.4,0.6l-0.1,0.4l0.4,0.4c0.7,0.6,0.8,0.6,1.6,0l0.4-0.4l-0.2,0.4L79,22.9l0.6,0.3
	c0.6,0.2,0.6,0.3,0.7,0.5c0.1,0.2,0.1,0.3-0.5,0.2c-0.4-0.1-0.4,0.1,0.1,0.3c0.2,0.1,0.5,0.2,0.6,0.4l0.2,0.2l-0.4-0.1
	c-0.6-0.2-1.2-0.1-1.7,0.2c-0.8,0.5-1.8,0.8-2.7,0.6c-0.3-0.1-0.3-0.1-0.1-0.4c0.2-0.2,0.2-0.4,0.3-0.5l0.2-0.3l-0.3-0.1
	c-0.8-0.2-1.7,0-2.4,0.5c-0.3,0.3-0.2-0.1,0.1-0.4c0.5-0.6,0.5-1.1,0-0.8c-0.2,0.1-0.3,0.2-0.4,0.6c-0.1,0.3-0.2,0.4-0.2,0.3
	c-0.1-0.3-0.1-0.6-0.3-0.8l-0.2-0.7L72.6,23c-0.1,0.2-0.2,0.2-0.1-0.2c0.1-0.4-0.1-0.4-0.2-0.1c-0.1,0.2-0.1-0.1,0-0.9
	c0.2-1.1,0.2-1.7-0.1-2.1c-0.3-0.3-0.7-0.5-1.1-0.6c-0.1,0-0.2-0.1-0.3-0.2c-0.1-0.1-0.3-0.2-0.5-0.1l-0.5,0.1c-0.2,0-0.3,0-0.5,0
	c-0.5-0.1-0.7,0-0.9,0.4c-0.1,0.3-0.2,0.7-0.1,1c0,0.4,0.1,0.8,0.4,1.1c0.4,0.4,0.7,0.9,0.8,1.4c0.1,0.4,0,0.6-0.1,0.4
	c-0.1-0.2-0.1-0.1-0.2-0.1c0.1,0.8,0.4,1.6,0.7,2.3c-0.4,0.1-0.8,0.3-1.3,0.5c-0.6,0.2-1.2,0.6-1.8,1c-1.2,1-1.9,2.3-2.6,4.7
	c-0.1-0.1-0.1-0.2-0.2-0.3c-0.2-0.4-0.3-0.6-0.6-0.6c-0.2,0-0.2,0.5,0,1.2c0.1,0.3,0.2,0.6,0.3,0.9c0,0.1,0,0.1,0.1,0.2
	c-0.2,0.8-0.3,1.7-0.3,2.5v0.5l-0.7-1c-1-1.3-2.4-3-3.8-4.6c-1-1.1-1.2-1.2-1.5-0.8c-0.2,0.2-0.2,0.4-0.2,1.2c0,0.2,0,0.3,0,0.4
	c-0.5-0.4-1-0.8-1.5-1.2c-1.9-1.4-4.2-2.1-6.5-2.3c-0.7,0-1.4,0.1-2.1,0.2c-0.5,0.1-0.2,0.8,0.8,1.9c1.4,1.4,3,2.5,4.8,3.3
	c1.4,0.6,2.9,1.2,4.3,1.5h0.2c0.1,0.3,0.2,0.9,0.3,1.4c0.2,1.5,0.6,3,1.2,4.4c0.3,0.7,0.6,1.4,1,2c0.1,0.2,0.3,0.4,0.4,0.7
	c-0.3-0.2-0.6-0.4-0.9-0.6l-1-0.6c-0.7-0.4-1.5-0.8-2.3-1c-1.8-0.6-3.8-0.6-5.7,0.1c-0.9,0.4-1.6,1.2-1.5,1.6
	c0.5,0.7,1.1,1.3,1.7,1.8c0.5,0.4,0.6,0.4,0.2,0.7c-0.7,0.6-1.2,1.2-1.6,2c-0.8,1.4-1.4,2.8-1.9,4.3c-0.3,1.3-0.4,2.7-0.3,4.1
	c0,0.2,0,0.4,0,0.6c0,0.9,0.2,1.7,0.4,2.6c0.2,0.6,0.3,1.3,0.3,2c-0.1,0.1-0.3-0.3-0.5-1c-0.1-0.4-0.2-0.8-0.4-1.2
	c-0.2-0.5-0.2-0.7-0.2-0.9c0-0.2,0-0.4,0-0.5c-0.1-0.4-0.3-0.5-0.7-0.3c-0.4,0.2-0.5,0.8,0,1.1c0.2,0.1,0.3,0.2,0.4,0.4
	c0.3,0.6,0.5,1.2,0.6,1.9c-0.7-0.7-1.2-1.5-1.6-2.3c-0.4-0.8-0.4-0.8-0.7-0.9c-0.2-0.1-0.4,0-0.5,0.1c-0.1,0.1-0.2,0.2-0.3,0.3
	c-0.1,0.2,0,0.5,0.3,0.7c0.1,0.1,0.2,0.2,0.3,0.3c0.2,0.2,0.4,0.3,0.6,0.4c0.3,0.1,0.5,0.3,0.7,0.5c0.1,0.1,0.3,0.4,0.6,0.7
	c0.5,0.6,0.5,0.7,0.2,0.6c-0.3-0.1-0.5-0.3-1.7-1.3c-0.5-0.5-1.2-1.1-1.5-1.3c-0.3-0.2-0.9-0.7-1.3-1.1l-2-1.6c-1-0.8-2-1.6-2.8-2.5
	c0-0.2,0-0.4,0-0.6c0-0.4,0-0.8,0-1.1v-0.6l0.5-0.7c0.3-0.4,0.7-1,1.1-1.4c1.1-1.3,1.9-2.9,2.3-4.6c0.1-0.5,0.3-1,0.6-1.4
	c0.2-0.3,0.4-0.5,0.5-0.8c0.3-0.6,0.8-1,1.9-1.6c1-0.6,1.2-0.8,1.3-1.3c0.1-0.5-0.1-0.9-0.5-1.1c-0.8,0-1.7,0.3-2.3,0.8
	c-0.9,0.5-1.7,1.2-2.4,2c-0.2,0.3-0.4,0.5-0.6,0.7C37.2,43,36,46,36.1,49.1c0,0.6,0.1,1.1,0.4,1.6c0.2,0.3,0.3,0.7,0.3,1.1
	c0,0.1,0,0.2-0.1,0.3c-0.2,0-0.3-0.1-0.4-0.2c-0.4-0.3-0.6-0.7-0.5-0.9c0.1-0.1-0.4-0.5-0.7-0.4c-0.3,0.1-0.7-0.2-2.3-1.8l-1.8-1.8
	c-0.3-0.3-0.8-0.8-1.1-1.1l-1.4-1.7c-0.9-0.9-1.6-2.1-2.1-3.3c-0.5-1.6-0.5-3.4,0.1-5c0.2-0.9,0.5-2,0.6-2.5
	c0.1-0.5,0.2-1.3,0.3-1.8c0.1-0.5,0.2-1.1,0.2-1.4s0.1-1,0.2-1.7c0.2-1.2,0.2-2.3,0-3.5l-0.2-0.9l-0.6-1c-0.3-0.5-0.7-1-0.7-1.1
	c-0.1-0.1-0.5-0.1-1,0.3c-0.7,0.5-1.2,1.2-1.4,2c-0.9,1.6-1.4,3.5-1.3,5.4c-0.1,2,0.3,4.1,1,6c0.3,0.8,1.8,4,2.5,5.3
	c0.4,0.7,0.4,0.8,0.3,0.8s-0.2-0.1-0.3-0.2s-0.3-0.4-0.6-0.7c-0.6-0.8-2.4-3.3-3.4-4.9c-0.5-0.7-0.9-1.4-1.1-1.6
	c-0.1-0.2-0.6-1-1.1-2c-0.5-0.9-0.9-1.8-1.2-2.8c-0.2-0.5-0.3-0.9-0.4-1.4c0.2-1.8,0.6-3.5,1.2-5.2c0.4-1.1,0.7-2.3,0.8-3.4
	c0.1-0.9,0.4-1.8,0.8-2.6c0.3-0.7,0.6-1.4,0.7-1.6c0.1-0.3,0.3-0.7,0.4-1c0.5-0.9,0.9-2.6,0.7-2.6c-0.2-0.1-0.4,0.2-1,1.1
	c-0.8,1.2-1.4,2.6-1.8,4c-1.1,3.1-1.8,6.2-2,9.5c0,0.5-0.1,1.1-0.2,1.6c0,0-0.1,0-0.2-0.3c-0.1-0.3-0.2-0.3-0.3-0.3
	s-0.2-0.1-0.3-0.8s0-1.1,0.6-3c0.4-1.3,0.5-2.6,0.3-3.9c-0.2-1.3-0.2-1.3-1.6-4.1c-0.3-0.6-0.3-0.6-0.5-0.5
	c-0.6,0.5-1.2,1.2-1.6,1.9c-0.4,1-0.6,2-0.5,3c0,0.2,0.1,0.8,0.2,1.3c0.1,0.8,0.4,1.6,0.8,2.3c0.3,0.7,0.6,1.4,1,2
	c0.5,0.7,0.8,1.4,1.1,2.2c2.5,5.5,2.7,5.8,2.4,5.6c0,0-0.5-0.6-1-1.3c-0.6-1-1.3-1.9-2.1-2.7c-0.2-0.2-0.6-0.7-1-1.1
	c-1.1-1.3-1.8-1.9-5.1-4.4c-1.5-1.2-3.3-2.1-5.2-2.5c-0.6-0.1-1.1-0.1-1.7,0l-1.3,0.1c-0.4,0-0.8,0.1-1.1,0.3
	c-0.2,0.1-0.3,0.1-0.4,0.2c0,0,0.2,0.2,0.5,0.4c0.5,0.5,1,0.9,1.4,1.4c0.7,0.9,1.7,1.7,2.8,2.2c0.6,0.3,1.3,0.7,1.6,0.9
	c0.2,0.1,0.4,0.3,0.7,0.4c0.2,0.1,0.3,0.1,0.5,0.2c0.4,0.2,0.8,0.4,1.2,0.5c0.5,0.2,0.9,0.4,1.3,0.6c0.8,0.4,2.3,1.1,2.4,1.1
	c0.2,0.1,0.4,0.2,0.6,0.3c0.3,0.1,1.1,0.5,1.7,0.7c2.3,0.9,2.5,1,3.3,2.1c0.4,0.6,0.8,1.1,1.3,1.6c0.4,0.4,0.7,0.8,1,1.2
	c0.6,1,2.5,3.5,4,5.4c1.3,1.7,2.1,2.6,4.3,4.9c2.2,2.3,2,2.1,1.8,2.2c-0.2,0.1-1.1-0.6-2.8-2.1c-0.5-0.5-1.2-1-1.5-1.2
	c-0.3-0.2-0.5-0.4-0.7-0.7c-0.3-0.4-0.6-0.7-1-1l-0.7-0.6l-0.5-1.4c-0.4-1.3-1.1-2.6-1.8-3.7c-0.7-1.1-1.6-2.1-2.6-2.9
	c-0.7-0.6-1.5-1.1-2.4-1.3c-0.4,0-0.5,0.1-0.4,0.6c0,0.2,0.1,0.6,0.2,1c0.4,1.9,2.1,4,4.6,5.6c0.7,0.4,1.4,1,2,1.6
	c0.5,0.4,0.9,0.9,1.4,1.2c0.6,0.4,0.7,0.6,0.3,0.6c-0.2,0-0.4,0.1-0.4,0.2c0.2,0.1,0.4,0.2,0.6,0.3c0.9,0.6,1.8,1.2,2.6,1.9
	c0.6,0.5,1.3,1,1.6,1.2c1.4,0.9,1.6,1.5,0.2,1c-1.2-0.6-2.4-1.3-3.4-2.2c-2-1.6-1.8-1.5-5.3-3.2c-2.7-1.3-5.7-2.1-8.7-2.3
	c-2-0.1-4.1,0.2-6,0.8c-0.2,0.1-0.5,0.2-0.7,0.4c0.2,0.2,0.4,0.3,0.6,0.4c0.9,0.4,1.8,0.9,2.7,1.5c1.2,0.9,2.6,1.6,4,2.1
	c2.7,0.9,5.5,1.5,8.4,1.8c0.9,0.1,1.9,0.2,2.8,0.1c0.7-0.1,1.4,0,2,0.2c0.5,0.1,1,0.3,1.4,0.3c0.5,0.1,1,0.2,1.5,0.4
	c0.5,0.2,1.1,0.3,1.6,0.4c0.4,0,0.8,0.1,1.2,0.2c0.7,0.4,1.3,0.8,1.8,1.4c0.3,0.2,1,0.9,1.7,1.5s1.3,1.1,1.4,1.2
	c0.2,0.2,0.5,0.5,0.8,0.7c0.8,0.7,1.6,1.4,2.4,2.1c0.1,0.2-0.4,0-1-0.4c-0.7-0.4-1.3-0.9-1.7-1.5c-0.1-0.4-0.4-0.4-0.7-0.2
	c-0.3,0.2-0.5,0.5-0.4,0.8c0.1,0.1,0.2,0.3,0.3,0.3c0.1,0,0.2,0.1,0.3,0.2c0.1,0.1,0.3,0.1,0.5,0.1c0.3,0,0.6,0.1,0.9,0.2
	c0.7,0.4,1.4,0.8,2.1,1.2c0.1,0.1-0.2,0.1-0.8,0c-0.8-0.2-1.5-0.6-2.1-1c-0.4-0.2-0.4-0.2-0.7,0.1c-0.3,0.3-0.2,0.6,0.2,0.8
	c0.1,0.1,0.3,0.1,0.4,0.1c0.1,0,0.2,0,0.2,0c0.2,0,0.5,0,0.7,0c0.3-0.1,0.5-0.1,0.8,0c0.3,0.1,0.7,0.2,1,0.3c0.3,0,0.5,0.1,0.7,0.3
	c0,0.2-0.3,0.3-0.6,0.2c-1.2-0.3-2.4-0.4-3.7-0.2c-0.7,0.1-1.4,0.1-1.6,0.1c-0.8,0.1-1.5,0.3-2.3,0.6c-0.5,0.3-1,0.6-1.5,0.9
	c-0.5,0.3-1.1,0.7-1.2,0.7c-1.7,1.1-3,2.6-3.9,4.3l-0.2,0.6l0.5,0.9c0.2,0.3,0.4,0.6,0.6,0.9c0.1,0.1,0.4,0.1,0.8-0.3
	c0.7-0.5,1.5-0.9,2.3-1.2c0.3-0.1,1-0.3,1.6-0.6c1.3-0.5,2.5-1.2,3.5-2.1c0.5-0.5,1-0.9,1.6-1.2c1-0.5,1.7-1.3,2.1-2.3
	c0.1-0.2,0.2-0.4,0.4-0.6c0.2,0,0.3,0,0.5,0c0.4,0.1,0.9,0.1,1.3,0c0.3-0.1,0.5-0.1,0.8-0.1c0.4,0,0.4,0,1.5,0.9
	c0.4,0.3,0.8,0.6,1.2,1c0.1,0.2-0.1,0.3-0.5,0.2c-0.5-0.1-1,0.4-0.7,0.8c0.3,0.4,0.6,0.3,1.6-0.1c0.2-0.1,0.4-0.1,0.6-0.1
	c0.2,0.1,0.5,0.3,2.5,2.2c1.9,1.8,1.9,1.8,1.9,2.1c0,0.4,0.2,0.8,1.1,1.8c0.5,0.5,1,1,1.3,1.7c-0.1,0.1-0.3,0.1-0.8-0.3
	c-0.3-0.2-0.8-0.5-1.1-0.6s-0.5-0.3-0.6-0.6c-0.1-0.4-0.4-0.6-0.8-0.7c-0.2,0-0.4-0.1-0.6-0.3c-0.2-0.3-0.4-0.3-0.5-0.1
	c0,0.1-0.1,0.2-0.1,0.2c-0.1,0.1,0,0.1,0.2,0.3c0.2,0.2,0.3,0.4,0.5,0.6c0.1,0.2,0.3,0.3,0.5,0.4c0.3,0.1,0.3,0.3,0.1,0.6
	s-0.2,0.2-0.4,0.1c-0.1-0.1-0.2-0.2-0.2-0.2c-0.1-0.1-0.1-0.2-0.2-0.2c-0.2-0.1-0.5,0-0.7,0.2l-0.2,0.3c-0.1,0.1-0.1,0.1-0.2,0.2
	c-0.1,0-0.1,0.4,0,0.6c0.1,0.1,0.3,0.1,0.4,0.1h0.4v0.3c0,0.3-0.1,0.3-0.3,0.4c-0.2,0.1-0.5,0.3-0.4,0.5s0.5,0.2,0.9,0
	c0.4-0.2,0.5-0.2,0.4,0.3c-0.1,0.4,0.1,0.6,0.4,0.4c0.4-0.1,0.4-0.3,0.3-0.6c0-0.1,0-0.3,0-0.4c0.1-0.1,0.1-0.1,0.2-0.1
	c0.4,0.2,0.4,0.3,0.6,0.1c0.1-0.1,0.2-0.2,0.2-0.4c0-0.1,0-0.2,0.1-0.3c0.8-0.1,1.5-0.1,2.3,0.1c0.2,0.1,0.5,0.1,0.8,0.1
	c0.2,0,0.4,0,0.6,0c0.2,0.1,0.4,0.4,0.2,0.5c0,0.1,0,0.1,0,0.2c0,0.1,0,0.2,0,0.2c-0.1,0.1,0.3,0.2,1.1,0.4c0.3,0.1,0.6,0.2,0.8,0.4
	c0.3,0.3,0.6,0.5,0.9,0.8c-0.6,0.3-1.2,0.6-1.8,1c-0.2,0.2-0.5,0.4-0.7,0.6c-0.5,0.3-0.5,0.5-0.1,0.9c0.3,0.3,0.6,0.5,0.9,0.5l0,0
	c0,0.1,0,0.3,0,0.4c0,0.2,0.2,0.4,0.4,0.5l0.2,0.1l-0.1,0.2c-0.2,0.3-0.1,0.3,0.3,0.4c0.2,0,0.3,0.1,0.4,0.2
	c0.1,0.2,0.4,0.2,0.5-0.1s0.1-0.2,0.3-0.2c0.2,0,0.4,0.1,0.6,0.2l1.3,0.5c0.5,0.1,0.9,0.3,1.3,0.6c0.2,0.2,0.4,0.3,0.6,0.4
	c0.4,0.1,0.6,0.3,1.2,1.1c1.5,1.9,2.8,4,3.8,6.2l0.2,0.3c0,0.2,0,0.3,0.1,0.5c0.1,0.5,0.2,1.1,0.2,1.6c0,0.7,0.1,1.5,0.4,2.1
	c0.1,0,0.3,0,0.4-0.1c0.3-0.2,0.5-0.1,0.7,0.1c0.2,0.2,0.1,0.1,0.3,0.1c0.1,0,0.2-0.1,0.2-0.1c0-0.4,0-0.8,0-1.2
	c-0.1-0.9,0-1.8,0.3-2.7c0.3-0.8,0.5-1,0.8-1c0.5-0.2,1.1-0.4,1.6-0.6c1.5-0.6,1.7-0.7,2.1-0.3c0.8,0.5,1.8,0.5,2.6,0.1
	c0.5-0.2,1-0.4,1.4-0.8c0.2-0.4-1.6-0.8-2.6-0.5c-1.4,0.4-2.8,0.9-4.1,1.4c-0.3,0.1-0.6,0.2-0.8,0.3c-0.1-0.1-0.1-0.4,0.1-0.7
	c0.2-0.2,0.5-0.4,0.8-0.5c0.8-0.4,1-0.5,0.8-0.6c-0.2-0.1-0.2,0-0.4,0.1c-0.4,0.2-0.3,0.1,0.5-0.8c1.5-1.6,3.1-3.1,4.8-4.5
	c0.9-0.7,3.7-2.5,4.8-3.1c0.5-0.3,1.3-0.7,1.8-0.9l1-0.4l0.6,0.7c0.5,0.6,1,1.1,1.5,1.6c0.3,0.2,0.6,0.3,0.8,0.4l0.6,0.2l0.2-0.6
	c0.1-0.4,0.2-0.8,0.1-1.2c0-0.2,0-0.5,0-0.7c0.2,0,0.3,0,0.5,0c0.4,0,0.8-0.1,1.1-0.3c0.3-0.1,0.7-0.2,1-0.2c0.3,0,0.5-0.1,0.8-0.2
	c1.4-0.7,2.8-1.5,4.1-2.5c0.3-0.3,1.1-0.9,1.7-1.4c0.8-0.6,1.6-1.4,2.2-2.3c0.2-0.3,0.2-0.3,0-0.5c-0.9-0.5-2-0.7-3.1-0.5L94.6,66
	c-0.9,0.2-1.8,0.6-2.7,1c-0.5,0.2-1.1,0.4-1.6,0.5c-0.4,0.1-0.8,0.2-1.2,0.4c-0.2,0.1-0.5,0.3-0.8,0.3c-1,0.4-1.9,1.1-2.6,2
	c-0.1,0.2-0.1,0.2-0.2,0.2c-0.2-0.1-0.3-0.2-0.5-0.3c-0.2-0.1-0.3-0.2-0.4-0.3c0.2-0.4,0.5-0.7,0.8-1c1.2-1.3,1.3-1.4,1.6-1.4
	c0.5,0,1.2-0.4,2.5-1.5c0.7-0.6,1.8-1.5,2.4-2l1.6-1.3c0.6-0.4,1.2-0.8,1.8-1.2c0.7-0.4,1.4-0.9,1.6-1.1c0.5-0.4,4.1-2.8,5.7-3.7
	c1.9-1.2,3.8-2.2,5.9-3c1.5-0.5,3.1-0.8,4.6-1.1c0.4-0.1,0.7-0.1,1-0.3c1.1-0.7,2.1-1.6,3-2.5l0.2-0.3l-0.3-0.1
	c-0.7-0.2-1.4-0.4-2.1-0.5c-0.6-0.1-1.2,0-1.7,0.2c-0.4,0.1-0.7,0.2-1.1,0.1c-0.2,0-0.5,0-0.7-0.1c-0.3,0-0.5,0-0.8,0.1
	c-0.3,0-0.6,0-0.8,0c-0.6-0.2-4.1,1-5,1.8c-0.3,0.3-0.6,0.4-1,0.5c-0.3,0-0.5,0.1-0.8,0.2c-0.8,0.5-1.6,1.1-2.3,1.8
	c-0.3,0.3-0.7,0.6-1.1,0.8c-1,0.4-2,1.4-3.4,3.3c-0.3,0.4-0.6,0.8-0.8,1.3c-0.1,0.5-0.2,1-0.1,1.5c0,0.1-0.1,0.2-0.5,0.5
	s-0.7,0.4-0.9,0.6c-0.2,0.1-0.7,0.5-1,0.7c-0.3,0.3-1.1,0.8-1.6,1.3c-0.7,0.7-1.5,1.4-2.3,2c0.1-0.2,0.3-0.4,0.5-0.5
	c1.1-1.1,1.6-1.7,1.3-1.7c-0.1,0-0.1-0.1-0.2-0.1c0-0.2-0.4,0.1-0.6,0.5c-0.2,0.3-0.4,0.5-0.6,0.7c-0.4,0.3-0.7,0.7-1,1.1
	c-0.2,0.3-0.4,0.5-0.7,0.7c-0.1,0-0.1,0,0-0.1c0.4-0.4,3.3-4.2,4.4-5.6c1.8-2.4,2.7-3.6,4-5.7c0.6-1,1.5-2.2,1.9-2.8
	c1-1.3,1.8-2.8,2.6-4.2c1-2.1,2.3-4,3.8-5.7c0.9-1.3,2.1-2.2,3.6-2.7c0.9-0.4,1.9-0.8,2.3-1.1c0.5-0.3,1-0.6,1.6-0.8
	c1.5-0.7,2.9-1.6,4.3-2.6c0.4-0.5,0.7-1.1,0.8-1.7c0.3-0.7,0.6-1.4,1-2.1c0.2-0.3,0.4-0.6,0.5-0.9C118.5,29.9,118.5,29.9,118.3,29.9
	z M92.5,18.6c0.2-0.2,0.3-0.1,0.1,0.1c-0.2,0.3-0.2,0.2-0.2,0.2C92.3,18.9,92.3,18.8,92.5,18.6z M87.1,20.6c0.2,0.1,0.2,0.1,0,0.5
	l-0.2,0.4l-0.1-0.2c-0.1-0.1-0.1-0.2-0.1-0.4C86.6,20.7,86.8,20.6,87.1,20.6C87.1,20.6,87.1,20.6,87.1,20.6z M51.9,68.9
	c-0.7,0.1-1.5,0.1-2.2-0.1l-0.4-0.1l0.2-0.5c0.1-0.2,0.2-0.4,0.3-0.5c0.7,0.3,1.4,0.7,2.1,1.1C52,68.8,52,68.9,51.9,68.9z
	 M85.6,23.8c0-0.3,0.1-0.7,0.2-1c0.2-0.5,0.2-0.5,0.4-0.5c0.2,0.1,0.2,0.1-0.1,0.7c-0.1,0.3-0.3,0.6-0.4,0.9l-0.1,0.2V23.8z
	 M83.7,30c0.4-0.9,0.6-1.2,0.8-1.1c0.1,0.2,0.2,0.4,0.3,0.6c0.1,0.3,0.3,0.6,0.5,0.8c0.4,0.4,0.9,0.5,1.4,0.2l0.3-0.2l0.2,0.6
	c0.1,0.3,0.3,0.6,0.5,0.8c0.2,0.1,0.2,0.3,0.2,0.5c0,0.2,0,0.4,0.1,0.6c0.1,0.3,0.1,0.3,0,0.7c-0.1,0.3-0.2,0.6-0.3,0.9
	c-0.1,0.7-0.4,1.3-0.9,1.7l-0.4,0.4l0.3-1c0.3-0.9,0.8-2.8,0.9-3.4c0-0.1,0-0.2-0.1-0.3c-0.3-0.1-0.6,0.4-2.6,4.1
	c-0.5,0.9-0.9,1.7-0.9,1.8c0,0-0.1,0-0.2-0.3c-0.1-0.3-0.1-0.3,0.2-0.7c0.2-0.3,0.3-0.5,0.4-0.8c0.1-0.4,0.1-0.5-0.3-0.5
	c-0.1,0-0.1,0-0.1-0.3l0.1-0.3L83.9,35c-0.3,0.2-0.6,0.3-0.9,0.6c-0.3,0.2-0.6,0.4-0.9,0.5c-0.5,0.1-0.9,0.5-1.1,0.9
	c-0.4,0.5-0.7,0.9-0.8,0.9c0.2-0.8,0.6-1.6,1.1-2.3c0.2-0.2,0.2-0.2,0.1-0.3c-0.1-0.1,0.1-0.2,1.2-0.5c0.6-0.2,1.2-0.6,1.5-1.2
	c0.2-0.5,0.3-1.1,0.1-1.2c-0.1-0.1-0.1-0.1-0.1-0.2c-0.1-0.2-0.2-0.5-0.3-0.7L83.3,31L83.7,30z M88.1,34.6c0,0.1,0,0.3-0.1,0.4
	c0,0.1-0.1,0.1-0.1,0.1c0-0.1,0-0.3,0.1-0.4C88.1,34.5,88.1,34.5,88.1,34.6L88.1,34.6z M83,38.6c-0.1,0.2-0.3,0.2-0.4,0.1
	c-0.1-0.2,0-0.1,0.1-0.2C82.8,38.4,83,38.4,83,38.6z M79,50.5c0.1,0.2,0.1,0.2-0.4,0.7c-0.3,0.3-0.7,0.6-1.1,0.9
	c-0.8,0.6-1.7,1.2-2.7,1.7c0-0.1,0.7-0.9,1.6-2c0.9-1,1.8-2,2.6-3.1c0.1-0.3,0.2,0,0.1,0.4C79,49.6,78.9,50,79,50.5z M76.2,51
	c-1.6,1.8-3,3.4-3,3.3c0,0,5.3-13.5,5.5-13.5s0.2,0.1,0.3,0.3c0.2,0.3,0.4,0.4,0.7,0.5c0.6,0.2,1.2,0.2,1.8-0.1
	c0.5-0.2,0.7-0.2,0.5,0.1c-0.8,1.3-1.4,2.6-1.8,4.1C80,46.3,78.3,48.6,76.2,51L76.2,51z M76.8,61.6l-0.3,0.1
	c0.1-0.1,0.2-0.2,0.3-0.2L76.8,61.6z M71,70.9c0.1,0.2,0,0.5-0.1,0.6c-0.2,0.3-0.4,0.3-1.4,0.6c-0.4,0.1-0.8,0.2-1.2,0.3
	c0,0,0-0.1,0.1-0.2c0.3-0.3,1.3-2,2.1-3.3c1.3-2.2,1.2-2.1,0.9-1.1c-0.2,0.4-0.3,0.9-0.4,1.4C70.9,69.8,70.9,70.3,71,70.9L71,70.9z
	 M65.6,76c0.1,0.3,0.1,0.7,0.1,1c0.1,0.6,0.2,1.2,0.3,1.7c0.2,0.4,0.3,0.9,0.2,1c-0.1,0-0.2-0.1-0.2-0.1c-0.2-0.2-0.5-0.3-0.7-0.5
	C65.4,78.2,65.6,77.1,65.6,76z M66.3,75.6c-0.1-0.4-0.3-0.9-0.4-1.3c0.1-0.6,0.2-1.4,0.3-2.2c0.1,0.2,0.2,0.5,0.2,0.7
	c0.2,0.5,0.3,1.1,0.2,1.6c0,0.5-0.1,1.1-0.1,1.3c0,0.2,0,0.3-0.1,0.5C66.4,76,66.3,75.8,66.3,75.6L66.3,75.6z M68.5,32.6
	c0.2-0.4,0.3-0.9,0.1-1.4l-0.1-0.1l0.1-0.1c0.1,0.3,0.2,0.5,0.3,0.8c0.2,0.9,0.4,1.1,0.9,1c0.5-0.1,0.6,0,0.6,1.3
	c0,1.2,0,2.3-0.1,3.5c0,0-0.2-0.1-0.3-0.3c-0.2-0.2-0.3-0.6-0.3-0.9c-0.1-0.5-0.3-1.1-0.5-1.6c-0.2-0.5-0.4-1.1-0.4-1.6v-0.5
	l-0.1,0.3c-0.1,0.3-0.1,0.3-0.2,0.1C68.4,32.8,68.4,32.7,68.5,32.6L68.5,32.6z M70,31.6c0,0.1-0.3,0.3-0.4,0.2
	c-0.1-0.1-0.2-0.3-0.2-0.5C69.4,31.2,70,31.4,70,31.6z M67.1,69.4c-0.1,0-0.3,0-0.3-0.1c0,0-0.1-0.1-0.1-0.1c0-0.7,0.1-1.4,0.3-2.1
	c0.1-0.4,0.2-0.8,0.3-1.2c0.1-0.3,0.3-0.5,0.5-0.7c0.1,0.2,0.2,0.3,0.4,0.3l0.3,0.1l-0.2,0.8c-0.3,1-0.8,3.7-1,4.9
	c0,0.3-0.1,0.6-0.2,0.8c0-0.2,0-0.5,0-0.7c0-0.5,0.1-1,0.2-1.4c0.1-0.2,0.1-0.4,0.2-0.7C67.4,69.3,67.2,69.4,67.1,69.4z M66.6,70.3
	c0.1,0.4,0.1,0.8,0,1.2c-0.1-0.2-0.2-0.4-0.2-0.6v-0.1c0-0.2,0.1-0.3,0.1-0.5L66.6,70.3z M68.6,65c0,0.3-0.1,0.3-0.2,0.3
	c-0.2-0.1-0.2-0.2,0-0.4S68.7,64.8,68.6,65z M68.4,70.6c0.5-2.3,0.9-4,1.1-5c0.3,0.2,0.5,0.3,0.8,0.4c0,0.6-0.2,1.3-0.4,1.9
	c-0.3,0.8-0.6,1.6-1,2.3C68.3,71.7,68.2,71.7,68.4,70.6L68.4,70.6z M70.7,66.1L70.7,66.1l0.2-0.1l-0.1,0.2l-0.2,0.4L70.7,66.1z
	 M68.1,63.4c-0.4,0.3-0.5,0.7-0.5,1.1c0,0.1,0,0.3,0,0.4c-0.1,0-0.2,0-0.2-0.2c0-0.1-0.1-0.2-0.3-0.2c-0.2,0-0.2,0-0.2-0.1
	c0-0.2,0-0.5,0-0.7c0.3-0.5,0.5-1.1,0.7-1.7c0.1-0.5,0.2-1,0.3-1.4c0.1,0.3,0.1,0.6,0.1,0.9C68,62.2,68,62.8,68.1,63.4L68.1,63.4z
	 M66.4,50.3c-0.1-0.1-0.2-0.1-0.3-0.1c-0.1,0-0.1,0-0.2-0.2L66.4,50.3l0.2,0C66.6,50.4,66.5,50.4,66.4,50.3z M68.5,50.2
	c0.3-1.3,0.4-2.6,0.1-3.9c0.4-0.5,0.7-1.2,0.9-1.5s0.4-0.8,0.6-1c0,0.8,0,1.4,0,1.8c0,0.4,0.1,1.4,0.1,2.2c0.1,2,0.5,4,1,6
	c0.1,0.2,0.1,0.5,0.1,0.7c0,0-0.2-0.1-0.3-0.3c-0.2-0.2-0.4-0.5-0.6-0.7c-0.6-0.7-1.2-1.4-1.8-2.2C68.3,50.8,68.3,50.8,68.5,50.2z
	 M71.2,37.4l-0.1,0.1H71v-0.3c0-0.3,0-0.6,0-0.6c0-0.1,0.2,0,0.2,0.2C71.3,37,71.3,37.2,71.2,37.4z M67.1,41.4l0.2-0.4
	c0.3-0.9,0.3-0.9,0.7-1.3c0.2-0.2,0.4-0.3,0.6-0.3C68,40,67.5,40.6,67.1,41.4z M65.8,49.9c0.1,0.2,0.1,0.4,0,0.6l-0.2-0.2
	c0-0.1-0.1-0.3-0.1-0.6L65.8,49.9z M67.6,77.5c0-0.5,0-0.9,0-1.4c0-0.6,0.1-1.3,0.1-1.5c0-0.9,0.3-1.2,1.4-1.6c1-0.4,1-0.4,0.2,1.2
	c-0.3,0.6-0.8,1.7-1.1,2.4l-0.6,1.3L67.6,77.5z M71.4,66.6l0.1-0.4l0,0h0.1h0.1c0,0,0,0.1-0.1,0.1L71.4,66.6z M77.4,68
	c0.2-0.2,0.4-0.4,0.6-0.6c0.3-0.3,0.5-0.5,0.6-0.4c0.1,0.2,0.1,0.4,0.1,0.6c0,0.3,0,0.5,0,0.8c-0.1,0.2-0.1,0.2-0.3,0.2
	c-0.3,0-0.5-0.1-0.8-0.1c-0.2,0-0.4,0-0.6-0.1C77.1,68.4,77.2,68.2,77.4,68L77.4,68z M70.1,59.8c-0.2,0-0.4,0-0.6,0
	c-0.2,0-1,0.1-1.6,0.2c0-0.1,0-0.2,0-0.3c0-0.1,0-0.3,0-0.6c0.1-0.1,0.3-0.2,0.4-0.3c0.5-0.3,0.6-0.5,0.5-0.7
	c-0.1-0.2-0.6-0.4-0.7-0.3c-0.1,0.1-0.2,0.2-0.2,0.3c0-0.4,0-0.8-0.1-1.1c0.3-0.4,0.4-1,0.4-1.5c-0.2-0.2-0.4-0.3-0.7-0.3
	c-0.2-1-0.5-2-0.9-3V52l0,0c0.2-0.4,0.3-0.8,0.4-1.2c0.5,0.4,0.9,0.9,1.3,1.4c0.7,0.8,1.8,1.9,2.3,2.4l0.9,0.9l-0.2,0.5
	c-0.1,0.3-0.3,0.9-0.5,1.4C70.8,58,70.4,58.9,70.1,59.8z M70.9,45.4c0-1.1-0.1-2-0.1-2.8c0.3-0.5,0.7-1.1,0.9-1.7
	c0.1-0.3,0.3-0.7,0.4-0.9c0.2-0.4,0.3-0.4,0.6-0.5l1.2-0.2c0.4-0.1,0.8-0.1,1.2-0.1c0.4,0.6,1,1,1.8,1c0.3,0,0.5-0.1,0.6-0.4
	c0.1-0.2,0.3-0.3,0.4-0.3c0.1,0,0.1,0,0,0.1c-0.1,0.1-1.5,3.3-3.1,7.3l-3,7.3l-0.2-0.9C71.2,50.6,70.9,48,70.9,45.4z M80.3,39.6
	c-0.1,0-0.2,0-0.4,0c-0.2,0-0.3,0-0.2-0.1c0-0.1,0.1-0.1,0.1-0.1C80,39.4,80.4,39.6,80.3,39.6z M80.1,38.6c0.1-0.4,0.8-0.7,0.9-0.4
	c0,0-0.1,0.1-0.3,0.2c-0.2,0.1-0.3,0.2-0.4,0.4C80.1,39.1,80,38.9,80.1,38.6L80.1,38.6z M82.7,32.4c0.1-0.2,0.2-0.5,0.4-0.6
	c0.1,0.1,0.2,0.2,0.2,0.2c0.1,0.1,0.1,0.2,0.2,0.3C83.2,32.3,83,32.4,82.7,32.4L82.7,32.4z M73.5,25.7c0.1-0.1,0.2-0.3,0.2-0.3
	s0.1,0,0.2,0c0.1,0,0.2,0.1,0.1,0.2c-0.1,0.1-0.2,0.3-0.3,0.4c-0.2,0.2-0.4,0.5-0.5,0.8c-0.1,0.2-0.2,0.3-0.3,0.4
	C72.7,27,73.2,25.9,73.5,25.7L73.5,25.7z M72,26.6c0.1-0.3,0.2-0.6,0.2-0.9c0-0.2,0-0.5,0.1-0.7c0.1-0.1,0.4-0.1,0.5,0.1
	c0.1,0.2,0,0.4-0.3,1.2c-0.3,0.8-0.4,1-0.5,1S71.9,26.9,72,26.6z M71.8,32.1c0.3-0.3,0.7-0.5,1.1-0.6c0.5-0.1,0.9-0.4,1.2-0.8
	c0.1-0.4,0.1-0.9-0.1-0.9c-0.2-0.1-0.1-0.1,0-0.1c0.2-0.2-0.8-0.1-1.4,0.1c-0.3,0.1-0.4,0-0.3-0.6c0.1-1.1,0.3-1.3,0.6-0.8
	c0.1,0.2,0.3,0.3,0.4,0.4c0.3,0.1,1.3,0,1.4-0.1c-0.1-0.3-0.2-0.6-0.5-0.8c-0.1,0,0.1-0.1,0.4-0.2c0.4-0.1,0.6-0.4,0.8-0.7
	c0.6-0.9,0.5-0.8,1.4-0.8c0.4,0,1.2,0,1.7,0c0.3,0,0.7,0,1,0.1c0.2,0.1,0.3,0.3,0.4,0.5c0.3,1.1,1.4,1.7,2.5,1.4c0,0,0,0,0,0
	l0.4-0.2l0.3,0.3l0.3,0.3l-0.4,0.8c-0.2,0.4-0.5,1.2-0.7,1.6l-0.3,0.7L81.6,31c-0.2-0.5-0.2-0.5-0.4-0.4c-0.1,0-0.2,0.1-0.2,0.2
	c-0.2-0.2-0.3-0.3-0.4-0.5c-0.6-1-1.7-2.1-2-1.9c0,0,0,0.2,0.1,0.4l0.1,0.4h-0.4c-0.2,0-0.4,0.1-0.6,0.2c-0.2,0.1-0.2,0.2-0.2,0.9
	c0,0.3,0,0.6,0.1,0.9c0.2,0.1,0.4,0.3,0.6,0.3c0.3,0.1,0.5,0.2,0.7,0.5c0.2,0.3,0.2,0.4,0,0.4c-0.6,0-0.5,0-0.8,0.9
	c-0.2,0.8-0.3,1.7-0.4,2.6c0.1,0.3,0.1,0.7,0.3,1c0.4,0.9,0.4,1.3,0.2,1.3c-0.2,0-0.5-0.1-0.8-0.7c-0.1-0.2-0.2-0.4-0.3-0.6
	c-0.4-0.3-0.7-0.7-0.9-1.2c-0.2-0.6-0.2-1.2,0-1.8c0.1-0.3,0.1-0.6,0.1-0.6s-0.4,0-0.9,0.4c-0.3,0.2-0.6,0.4-1,0.6
	c-0.3,0.1-0.4,0.2-0.4,0.3c0,0.3,0,0.6,0,0.9c-0.1,0.4,0,0.8,0.1,1.1h-0.4c-0.3,0-0.7,0.1-1,0.3c0.1-0.2,0.2-0.5,0.2-0.8
	c0-0.7,0.1-1.5,0.5-2.1c0.9-1.6,1-1.9,0.3-1.3c-0.4,0.4-0.8,0.6-0.7,0.4c0.1-0.2,0-0.1-0.1-0.1c-0.1,0-0.2,0.1-0.2,0.2
	c-0.1,0.2-0.1,0.2-0.3,0c-0.1-0.2-0.1-0.2-0.3,0s-0.4,0.2-0.3-0.3c0-0.2,0-0.3,0-0.3c-0.2,0.3-0.4,0.7-0.5,1c-0.1,0.3-0.3,0.7-0.5,1
	c0,0-0.1,0,0-0.1s0.1-0.5,0.1-1.1l0.1-1.1l0.2-0.1C71.7,32.2,71.8,32.2,71.8,32.1L71.8,32.1z M71.3,29.6c-0.2,0.6-0.4,1.2-0.4,1.4
	l-0.1,0.4l-0.4-1c-0.1-0.3-0.3-0.6-0.5-0.9c0.3-0.4,0.5-0.8,0.8-1.3c0.1,0.2,0.3,0.4,0.8,0.4C71.6,28.5,71.6,28.6,71.3,29.6
	L71.3,29.6z M71.2,27.4c-0.1,0-0.2,0.1-0.2,0.1c0.1-0.2,0.2-0.5,0.2-0.7C71.6,27.1,71.6,27.2,71.2,27.4L71.2,27.4z M70.2,19.1
	c0.4,0.1,0.4,0.1,0.5,0.2c0,0.1,0,0.2,0,0.4l-0.1,0.2l-0.2-0.3C70.3,19.5,70.2,19.3,70.2,19.1C69.9,19.1,69.9,19.1,70.2,19.1z
	 M70.2,20.8l0.3-0.3l0.1,0.3c0.1,0.3,0.1,0.3-0.1,0.3c-0.1,0-0.2,0-0.3,0c-0.1,0-0.2,0-0.2,0C69.8,21.1,69.9,21,70.2,20.8L70.2,20.8
	z M64.3,36.3c0.2-0.3,0.4-0.6,0.6-1c0.2-0.4,0.4-0.8,0.6-1.1c0.2,0.4,0.2,0.5,0,0.5s-0.1,0.1,0.3,0.6c0.8,1.1,2,1.8,3.3,2.1
	c0.2,0,0.3,0,0.5,0c0.2,0.1,0.6,0.6,0.5,0.6c-0.1,0-0.1,0-0.2-0.2c-0.3-0.3-0.7-0.5-1.1-0.4c-1.1,0.1-2.1,0.7-2.5,1.7L66,39.7
	l-0.3-0.6c-0.5-0.9-1.1-1.7-1.7-2.5C64.1,36.5,64.2,36.4,64.3,36.3z M53.3,49.5c0.2-0.6,0.3-1.2,0.4-1.7c0-0.1,0-0.4,0-0.7
	c0-0.3,0-0.5,0.1-0.8c0-0.1,0-0.3,0-0.4c-0.1-0.3,0.1-0.3,1.1-0.2c0.6,0,1.2,0,1.8,0l1.2-0.1c0.1,0,0.5,0,0.8-0.1
	c0.8-0.1,2-0.2,2.7-0.2c0.2,0.4,0.5,0.7,0.8,1.1c0.6,0.7,1.2,1.2,1.9,1.7c0.1,0.1,0.3,0.2,0.3,0.4c0.2,0.2,0.3,0.5,0.6,0.6
	c0,0.1,0.1,0.3,0.1,0.4l-0.2-0.2c-0.3-0.2-0.5-0.5-0.8-0.8c-0.5-0.6-1.1-1-1.8-1.3c-0.4-0.1-0.4-0.1-0.5,0.2c-0.3,0.6-0.4,1.3-0.3,2
	c0.1,0.5,0.3,1,0.4,1.5c0.1,0.2,0.1,0.4,0.2,0.5l-0.2,0.1c0,0,0,0.1,0.1,0.2c0.1,0.1,0.1,0.2-0.1,0.3c-0.1,0-0.2,0.2-0.2,0.3
	c0,0.3-0.1,0.3-0.5,0c-1.2-0.8-2.5-1.5-3.8-1.8c-1.2-0.3-2.4-0.3-3.5-0.1c-0.2,0.1-0.4,0.1-0.6,0.1C52.9,50.7,52.9,50.4,53.3,49.5
	L53.3,49.5z M54.5,68.1c0,0.2-0.5,0.2-0.7,0c-1-1-2-2-2.8-3.2c0-0.1-0.1-0.2-0.2-0.2c-0.3-0.1-0.5-0.3-0.7-0.5
	c-0.4-0.4-0.7-0.8-1.1-1.2c-0.6-0.6-1.1-1.1-1.1-1.1c0-0.8,0.1-1.6,0.2-2.4c0.1-0.5,0.2-0.9,0.4-1.4c0.4-1,0.5-1,0.7,0
	c0.4,2.2,1.4,4.3,2.9,6c0.8,0.9,2.1,2.6,2.3,2.9C54.5,67.3,54.5,67.7,54.5,68.1z M55.6,69.7c-0.3-0.3-0.5-0.8-0.5-1.2
	c0-0.2,0-0.6,0-1c-0.1-0.8,0-1.5,0.1-2.3c0.1-1.3,0.1-2.7,0-4c0-0.1-0.1-0.6-0.2-0.9c-0.3-1.5-0.9-3-1.8-4.3
	c-0.2-0.3-0.7-0.9-1.1-1.4c-0.4-0.5-0.8-0.9-0.8-1c0.1-0.2,0.2-0.4,0.3-0.6c0.1-0.2,0.2-0.4,0.4-0.6c0.1,0,0.5,0.3,0.5,0.5
	c0.2,0.2,0.5,0.4,0.7,0.6c1.9,1.5,4.5,2.1,8,1.9h0.8c0,0.4,0.1,0.9,0.2,1.5c0.2,1,0.3,2.3,0.4,2.9c0,0.6,0.2,1.2,0.4,1.8
	c0,0.1,0.1,0.2,0.1,0.3c-0.3,0.1-0.5,0.4-0.4,0.7c0.2,0.4,0.6,0.6,1,0.7c0.2,0.1,0.4,0.2,0.6,0.3c0.1,0.1,0.3,0.3,0.4,0.4
	c0.2,0.2,0.4,0.4,0.6,0.7c0,0.1,0.1,0.8,0.1,1.7c0,0.2,0,0.5,0,0.7c-0.2,0.1-0.2,0.3,0,0.9c0,0,0,0,0,0.1c0,0.6,0.1,1.2,0.1,1.6
	c-0.1,1.2-0.3,2.3-0.5,3.5l0,0c-0.2-0.2-0.4-0.4-0.5-0.6c-0.3-0.6-0.9-1.1-1.6-1.2c-1.1-0.4-2.3-0.5-3.5-0.5l-0.9,0.2
	c-0.1,0-0.3,0.1-0.4,0.1v-0.1c-0.1-0.7-0.1-0.9,0-1.1c0.1-0.4,0.1-0.9-0.1-1.3c-0.1-0.1-0.2-0.2-0.3-0.2c-0.3,0-0.5,0.1-0.6,0.3
	c-0.2,0.2-0.2,0.2,0,0.8c0.1,0.2,0.2,0.4,0.4,0.6c0.2,0.1,0.3,0.3,0.5,1v0.1l-0.7,0.2C56.8,70.9,55.8,69.9,55.6,69.7z M55.6,75.2
	l0.3,0.1l0,0C55.8,75.4,55.7,75.3,55.6,75.2L55.6,75.2z M58.1,76.7c-1-0.4-1.2-0.6-0.9-1l0.4,0.1c-0.1,0.1,0,0.2,0.1,0.2
	c0.1,0,0.2,0,0.3,0c0.3,0.1,0.7,0.2,1,0.3l0.5,0.6c0.2,0.2,0.3,0.3,0.2,0.4C59.8,77.4,59.7,77.4,58.1,76.7L58.1,76.7z M60.5,77.4
	c-0.4-0.3-0.7-0.7-1-1.2H60c0.1,0.2,0.3,0.4,0.4,0.5c0.2,0.2,0.3,0.3,0.4,0.5C60.9,77.4,60.7,77.5,60.5,77.4L60.5,77.4z M63.6,79.4
	c-0.2-0.3-0.7-1-1.1-1.4c-0.3-0.4-0.8-1-1-1.3c-0.2-0.3-0.2-0.3-0.4-0.5c0.6,0,1.2-0.1,1.7-0.2c0.7-0.2,1.3-0.6,1.8-1.1l0.2-0.2
	c0,0,0,0.1,0,0.1c0,0.3-0.2,2.6-0.4,4c-0.4-0.1-0.7-0.1-1.1-0.1c-0.2,0-0.2,0-0.1,0.3c0.3,0.4,0.6,0.7,1,0.8
	C64.3,80.1,64.1,80,63.6,79.4L63.6,79.4z M65.6,82.1c-0.4-0.6-0.5-1.3-0.4-1.9c0.2,0.1,0.4,0.1,0.6,0.1h0.5v0.2c0,0.1,0,0.5,0,0.9
	s0,1.2,0,1.9L65.6,82.1z M68,84.7l-0.2,0.7l-0.1-0.8c0-0.4,0-0.9,0-1.3c0-0.4,0-0.8,0-1.2c-0.1-1,0-1.1,0.4-0.4
	C68.4,82.6,68.4,83.7,68,84.7z M74.3,77.8c-1.5,1.3-2.9,2.7-4.2,4.1c-0.3,0.4-0.7,0.7-0.7,0.7s0.3-1,1-1.6c0.8-0.8,1.4-1.6,2.1-2.5
	c0.3-0.5,0.7-0.9,1.1-1.3c0.6-0.5,1.1-1.2,1.6-1.8c0.6-1.1,1.1-3,0.7-3.1c-0.2-0.1-0.5,0.2-0.6,0.5c-0.1,0.3-0.3,0.5-0.5,0.7
	c-0.5,0.6-1,1.3-1.4,2c-0.2,0.4-0.3,0.7-0.4,1.1c-0.1,0.5-0.2,0.9-0.5,1.3c-0.6,0.9-1.3,1.7-2,2.4c-0.5,0.5-0.9,1-1.2,1.5
	c-0.3,0.5-0.3,0.5-0.3,0.9c0,0.4,0,0.6-0.2,0.7c-0.1,0-0.1-0.2-0.1-0.5c0-0.9-0.5-2.1-0.8-1.9c-0.3,0.2-0.2-0.1-0.2-1v-0.6l1.2-2.8
	c1.2-2.9,1.8-4,2.1-4.1c0.4-0.1,0.8-0.2,1.2-0.3c0.6-0.1,1.3-0.3,1.7-0.4c0.3-0.1,0.7-0.2,1-0.1c0.7,0.2,1.4,0.2,2.1,0
	c0.3,0,0.6,0,0.9,0c0,0.2,0,0.4-0.1,0.6c-0.4,1.2-0.9,2.4-1.5,3.6C76.1,76.3,75.8,76.6,74.3,77.8L74.3,77.8z M78,73.4
	c0.5-1.4,0.7-1.9,0.8-1.9c0.1,0,0.4-0.1,0.8-0.2c0.6-0.2,1.2-0.3,1.9-0.3c0.1,0,0.2,0.1,0.2,0.2c0.1,0.1,0,0.2-1.1,1.3
	c-1,1-2.1,1.9-3.1,2.8C77.3,75.4,77.6,74.5,78,73.4z M82.2,73.2c-0.6,0.3-1.3,0.6-1.5,0.7l-0.3,0.2l0.4-0.4c0.6-0.7,1.2-1.2,1.9-1.7
	c0,0,0.2,0.2,0.4,0.3c0.2,0.1,0.3,0.2,0.3,0.3C83,72.8,82.6,73,82.2,73.2z M86.3,64.8c-0.3,0.6-0.5,1.2-0.6,1.8c0,0.3,0,0.4-1,1.6
	l-1,1.2L83,69.4l-0.9-0.1c-0.3,0-0.5-0.1-0.8-0.1C80.9,69,80.4,69,79.9,69c-0.7,0-0.8-0.1-0.4-0.6c0.8-1,1.3-2.1,1.5-3.4
	c0.1-0.5,0.3-1,0.6-1.4c0.3-0.6,0.8-1.7,1.2-2.6c0.3-0.6,0.6-1.3,0.6-2c0-0.5,0-0.5-0.3-0.6c-0.6-0.2-1.2-0.1-1.7,0.2
	c-0.2,0.1-0.4,0.2-0.6,0.2c-0.1-0.1-0.2-0.3-0.2-0.4c-0.4-1.2-0.9-2.4-1.6-3.6c-1.5-2.3-2.2-1.9-2.8,1.7c-0.1,0.7-0.1,1.5-0.1,2.2
	c-1.4-0.1-2.8,0.3-4,1.1L71.7,60h-0.3c0.1-0.3,0.3-0.8,0.5-1.3l1-2.7l0.5-0.4c0.3-0.2,0.7-0.4,1-0.6c1.7-1,3.3-2.1,4.8-3.3
	c0.4-0.4,0.5-0.4,0.9-0.4c0.8,0.1,1.7-0.2,2.3-0.8c0.1-0.1,0.3-0.2,0.5-0.3c0.2-0.1,0.4-0.2,0.6-0.4c0.4-0.3,0.9-0.7,1.4-0.9
	c0.9-0.5,1.7-1.2,2.3-2c0.7-0.9,1.4-1.8,2-2.8l0.3-0.4l-0.2,0.7c-0.1,0.5-0.2,1-0.3,1.5c0,1.5,0.1,2.9,0.3,4.4
	c0.1,0.7,0.1,1.5,0.1,1.9c0,0.5,0,0.9,0.1,1.4c0.2,0.5,0.1,1-0.2,1.4c-0.2,0.4-0.3,0.9-0.3,1.4c0,0.3,0.1,0.7,0.2,1
	c0.1,0.3,0.1,0.5-0.1,1.1c-0.4,1.2-0.9,2.4-1.5,3.5C87.2,62.7,86.6,63.9,86.3,64.8z M95.1,54.2c-1,1.7-1.6,2.6-2.6,4L91.2,60
	c-0.7,1-3,4-3.2,4.1s0.2-0.5,0.6-1c0.2-0.2,0.3-0.4,0.4-0.6c0-0.2-0.2-0.3-0.2-0.2c-0.1,0.1-0.1,0-0.2,0c-0.1,0-0.4,0.1-0.5,0.6
	c-0.1,0.3-0.3,0.6-0.5,0.9l-0.4,0.5l0.3-0.6c0.2-0.5,2.2-5.1,2.5-5.7c0.1-0.1,0.3-0.2,0.4-0.3c0.7-0.4,1.3-0.8,1.9-1.3
	c0.1-0.1,0.3-0.4,0.6-0.7c0.2-0.3,0.4-0.6,0.6-0.9c0.1-0.3,0.3-0.6,0.5-0.9c0.9-1.5,1.6-3.1,2-4.8c0.1-0.6,0.3-1.4,0.4-1.7
	c0.2-1.1,0.2-2.1,0.2-3.2c-0.2-1.5-0.5-3.1-0.9-4.5c-0.2-0.5-0.5-0.9-0.8-1.4c-0.4-0.7-0.6-1-0.6-1.1c0.1-0.1,0.1-0.1,0.6,0.1
	c0.5,0.2,0.7,0.2,0.9-0.2c0.1-0.5,0-1-0.2-1.5c-0.1-0.3-0.1-0.3,0.3-1.5c0.2-0.5,0.4-1.1,0.5-1.6c0.1-0.6,0.1-0.7,0.3-0.2
	c0.1,0.2,0.2,0.3,0.3,0.4c0.1,0,0.1,0.8,0,1.1c0,0.9,0.1,1.8,0.3,2.6c0.1,0.2,0.4,0.7,0.6,1.1c0.7,1.1,1.1,2.4,1.1,3.7
	c0,0.3,0.1,0.5,0.1,0.8c0.2,0.3-0.2,2.9-0.9,5.4C97.3,49.7,96.3,52,95.1,54.2z M98.7,47.3c0.3-1.2,0.9-3.9,1-4.8
	c0-0.3,0.1-0.6,0.4-0.9c1-1.4,1.7-3,2-4.7c0-0.3,0.1-0.6,0.2-0.8c0.1,0.2,0.1,0.3,0.1,0.5c0,0.3,0.1,0.5,0.2,0.8
	c0.2,0.5,0,1.3-1.4,4.8c-0.7,1.7-1.2,3.1-1.2,3.4c-0.3,1-0.7,1.9-1.2,2.7C98.1,49.5,98.1,49.6,98.7,47.3z M102.6,43.3
	c-0.5,0.7-1.6,2.4-2.1,3.3c-0.1,0.2-0.3,0.5-0.4,0.7c-0.1,0,0.3-0.7,0.9-1.7c0.7-1.2,1.4-2.5,1.9-3.8c0-0.1,0-0.1,0.1-0.1
	c0,0.2,0.1,0.4,0.1,0.6v0.5L102.6,43.3z"/>
<path class="st0" d="M62.3,59.8c0-0.1-0.1-0.1-0.2-0.1C62,59.8,62.1,59.8,62.3,59.8C62.4,59.9,62.4,59.9,62.3,59.8z"/>
<path class="st0" d="M47.7,64.6c0-0.1-0.1-0.1-0.1-0.1c0,0-0.2,0.4-0.1,0.4C47.6,65,47.8,64.7,47.7,64.6z"/>
<path class="st0" d="M47,65.4C47.1,65.5,47.1,65.5,47,65.4c0.1-0.1,0-0.2,0-0.3c-0.1-0.1-0.1-0.1-0.1,0C46.9,65.2,46.9,65.3,47,65.4
	z"/>
<path class="st0" d="M46.4,66.1c-0.1,0.1-0.2,0.1-0.1,0.2c0.1,0,0.2,0,0.2,0c0.1,0,0.1-0.1,0.1-0.2C46.6,66.1,46.5,66.1,46.4,66.1z"
	/>
</svg>
