<?xml version="1.0" encoding="utf-8"?>
<!-- Generator: Adobe Illustrator 23.0.3, SVG Export Plug-In . SVG Version: 6.00 Build 0)  -->
<svg version="1.1" id="Layer_1" xmlns="http://www.w3.org/2000/svg" xmlns:xlink="http://www.w3.org/1999/xlink" x="0px" y="0px"
	 viewBox="0 0 99.2 161.6" style="enable-background:new 0 0 99.2 161.6;" xml:space="preserve">
<style type="text/css">
	.st0{fill:#D8B453;}
</style>
<title>Artboard 4</title>
<path class="st0" d="M97.8,3.4c0-0.2,0.2-0.3,0.4-0.2c0.2,0,0.3,0.2,0.2,0.4L87.1,55.2c0,0-1.5,8.2-12.8,8.5s-43.1,1-44,1.1l0,0
	c-0.7,0.1-21.6,3.8-6,20.3c14.8,15.6,55.9,56,61.4,61.3c0.5,0.4,0.5,1.2,0,1.6c0,0,0,0,0,0c-1.1,0.9-2.5,1.5-3.9,1.8
	c-4.3,1.2-45.8,11.3-45.8,11.3s-4.1,1.7-5-2c-0.9-3.7-6.1-65.2-6.1-65.2c-0.2-3.4-1.5-6.6-3.7-9.1c-3.7-4.3-10.4-16,2.7-21.6H24
	c1-0.3,42.1-11.3,43-11.9c0.9-0.6,3.4,5.5,6.7,7.3c3.4,1.8,7.6,1.8,9.8-3c2-4.6,0.2-14.5,0-15.5c0-0.1,0-0.1,0-0.2L97.8,3.4z"/>
<path class="st0" d="M95.6,0.2C91.3,2,81.3,5.8,73.4,5.5c-0.3,0-0.6,0.1-0.8,0.4L49.4,38c-0.3,0.4-0.2,0.9,0.1,1.3
	c3.7,3.2,6.5,7.2,8.3,11.7c0.2,0.4,0.7,0.7,1.1,0.6c2.6-0.7,5.4-1.6,7.9-2.3c0.4-0.1,0.8,0.1,1.1,0.4c1.4,2.3,6.4,10.2,11.2,8
	c6-3.2,3.1-14.4,2.4-17.5c-0.1-0.2-0.1-0.4,0-0.6L96.9,1.4c0.1-0.5-0.2-1.1-0.7-1.2C96,0.1,95.8,0.1,95.6,0.2z"/>
<path class="st0" d="M17.2,64.6c2.3-2.6,21.7-7.6,27.6-9.1c0.4-0.1,0.7-0.5,0.6-0.9c0-0.2-0.1-0.3-0.3-0.4c-2-1.5-3.8-3.2-5.5-5
	c-0.2-0.2-0.5-0.3-0.8-0.2l-25.2,7.7h-0.1c-0.3,0.1-2.6,0.5-5.3,1.1c-2,0.4-12.6,6-4,19l0.2,0.1l4.8,3.3l8.8,6.1
	c0.4,0.2,0.8,0.1,1.1-0.2c0.2-0.2,0.2-0.5,0-0.8c-0.9-1.3-1.9-2.8-2.9-4.5C12.9,75.3,14.9,67.3,17.2,64.6z"/>
<path class="st0" d="M22.6,92.2l3.9,41c0.1,0.7-0.5,1.3-1.2,1.4c0,0-0.1,0-0.1,0c-3.4,0-12.3,0.2-14.2,0.1c-2.4,0-2.2-2.6-2.2-2.6
	L5.1,81.8c0-0.7,0.5-1.3,1.2-1.4c0.3,0,0.6,0.1,0.8,0.2L22,91.3C22.3,91.5,22.5,91.8,22.6,92.2z"/>
</svg>
